<?xml version="1.0" encoding="utf-8" standalone="yes"?>
<!DOCTYPE svg PUBLIC "-//W3C//DTD SVG 1.1//EN" "http://www.w3.org/Graphics/SVG/1.1/DTD/svg11.dtd">
<svg style="fill:none;stroke:none;fill-rule:evenodd;clip-rule:evenodd;stroke-linecap:round;stroke-linejoin:round;stroke-miterlimit:1.5;" version="1.1" xmlns="http://www.w3.org/2000/svg" xmlns:xlink="http://www.w3.org/1999/xlink" width="868" height="576" viewBox="0 0 868 576"><style class="text-font-style fontImports" data-font-family="Roboto">@import url(https://fonts.googleapis.com/css2?family=Roboto:wght@400;700&amp;amp;display=block);</style><rect id="" x="0" y="0" width="868" height="576" style="fill: #2c2c2c;"></rect><g id="items" style="isolation: isolate"><g id="blend" style="mix-blend-mode: normal"><g id="g-root-tf_1qa362o1liqzno-fill" data-item-order="-749952"><g id="tf_1qa362o1liqzno-fill-merged" stroke="none" fill="#2c2c2c" fill-opacity="1"><g><path d="M0 0 H868 V576 H0 V0"></path></g></g></g><g id="g-root-cp_0r_g-0r_4j6rgg1liearr-fill" data-item-order="-386774" transform="translate(17.998992919921875, 206.5625)"><g id="cp_0r_g-0r_4j6rgg1liearr-fill-merged" stroke="none" fill="#5c4938" fill-opacity="1"><g><path d="M150.016 32.768C158.265 33.71 166.34 34.633 174.341 35.487C176.46 36.762 179.159 38.028 181.601 38.905C183.777 39.689 185.764 40.164 186.96 40.052C187.463 40.525 188.185 41.013 189.056 41.494C188.835 43.467 188.788 47.112 191.251 48.075C193.532 48.967 195.748 46.365 196.968 44.52C197.423 44.64 197.904 44.756 198.347 44.855C200.646 45.367 202.741 45.569 204.048 45.285C204.898 45.754 205.809 46.155 206.758 46.492C206.79 48.539 207.237 51.572 209.526 52.244C211.987 52.969 214.038 49.87 215.055 47.944C216.67 47.987 218.238 47.887 219.62 47.704C221.987 47.396 223.872 46.812 224.754 46.046C225.874 46.289 226.964 46.418 228.019 46.458C228.123 48.503 229.609 51.972 232.149 52.033C234.805 52.091 236.173 47.299 236.615 45.194 V44.985C237.887 44.557 238.996 44.095 239.979 43.687L240.324 43.543C242.188 42.767 243.489 41.854 243.948 41.058C244.881 41.412 245.974 41.605 247.153 41.668C247.808 43.568 249.309 46.805 251.907 46.645C254.562 46.478 255.385 42.6 255.639 40.47C256.192 40.3 256.748 40.105 257.258 39.914C260.28 39.853 263.333 39.764 266.424 39.644C267.384 41.071 268.744 42.35 270.445 42.094C271.816 41.886 272.602 40.718 273.05 39.342C277.126 39.129 281.268 38.862 285.485 38.536C285.762 38.633 286.058 38.69 286.375 38.698C286.877 38.71 287.327 38.584 287.728 38.357C305.461 36.909 324.536 34.423 345.626 30.57C400.311 20.582 429.827 28.036 464.864 36.885C502.031 46.272 545.41 57.227 631.636 50.599C631.908 50.57 632.199 50.54 632.509 50.508C642.088 49.511 669.685 46.639 689.159 34.398C689.159 34.398 699.934 27.497 710.983 10C706.847 24.113 704.892 30.246 700.046 39.018C697.468 43.687 688.586 50.491 678.671 53.491C694.615 58.94 703.148 66.764 717.946 87.022C717.934 87.022 781.249 93.058 802.001 107.892C770.094 101.44 747.462 99.912 732.435 98.897C721.631 98.168 714.758 97.704 711.195 95.867C688.624 72.105 667.747 60.764 647.493 61.592C538.478 71.22 490.632 60 454.458 51.518C447.654 49.922 441.264 48.424 434.956 47.179C431.283 44.236 428.01 42.899 425.076 41.93C422.606 39.24 416.196 34.313 410.696 34.313C406.562 34.313 401.785 39.246 398.262 43.884C385.215 44.349 370.392 46.637 351.792 51.703C269.352 74.162 247.268 72.103 178.402 65.682C169.55 64.856 159.926 63.959 149.302 63.032C109.118 59.525 78.118 83.702 46.954 108.007C34.844 117.451 22.708 126.916 10 134.782 V84.49C19.19 79.395 28.034 73.887 36.813 68.419C70.244 47.599 102.734 27.364 149.788 32.742 H150.016"></path></g></g></g><g id="g-root-cp_0q_g-0q_3d9c01liebk0-fill" data-item-order="-386768" transform="translate(196.9580078125, 229.21875)"><g id="cp_0q_g-0q_3d9c01liebk0-fill-merged" stroke="none" fill="#545454" fill-opacity="1"><g><path d="M103.147 10.781C103.653 12.749 104.871 15.977 107.416 16.042C110.163 16.106 111.314 12.052 111.725 10C108.833 10.619 105.607 10.951 103.147 10.781 M86.178 14.555C86.916 16.327 88.763 19.847 91.486 19.437C94.108 19.04 94.592 15.13 94.658 12.974C92.043 13.836 88.91 14.481 86.178 14.555 M68.189 18.999C68.842 20.898 70.345 24.149 72.948 23.988C75.603 23.822 76.426 19.944 76.68 17.813C73.979 18.637 70.872 19.156 68.198 19.004 M49.055 23.513C49.021 25.499 50.526 29.313 53.19 29.376C55.846 29.435 57.214 24.643 57.656 22.538C55.154 23.017 52.219 23.865 49.055 23.513 M27.799 23.849C27.831 25.897 28.278 28.915 30.567 29.588C33.028 30.313 35.079 27.214 36.096 25.288C33.353 25.215 30.438 24.782 27.799 23.849 M10.098 18.83C9.876 20.802 9.826 24.455 12.292 25.418C14.573 26.311 16.789 23.708 18.009 21.864C15.166 21.12 12.207 20.001 10.098 18.83"></path></g></g></g><g id="g-root-cp_0p_g-0p_1q8ub281liec5l-fill" data-item-order="-386764" transform="translate(177.11129760742188, 198.46875)"><g id="cp_0p_g-0p_1q8ub281liec5l-fill-merged" stroke="none" fill="#4b533a" fill-opacity="1"><g><path d="M10.395 33.421C12.291 28.345 19.795 25.221 27.183 25.676C28.836 25.781 30.475 26.054 32.048 26.525C34.296 25.31 38.863 25.541 43.037 26.782C44.443 27.192 45.811 27.728 47.029 28.36C48.704 27.003 54.2 26.698 58.595 27.372C60.203 27.616 61.674 27.994 62.733 28.511C64.091 26.9 69.8 24.142 74.843 23.962C76.288 23.911 77.681 24.055 78.904 24.513C79.585 21.91 87.069 18.635 92.527 17.94C94.179 17.738 95.644 17.757 96.68 18.107C97.938 15.247 105.898 12.281 111.338 11.989C113.057 11.896 114.527 12.072 115.446 12.602C116.871 10.134 125.419 9.467 130.646 10.409C132.466 10.74 133.875 11.267 134.453 11.977C136.447 8.421 149.381 11.556 156.94 18.126C164.982 25.117 164.15 30.536 163.16 32.56C158.329 42.502 142.391 38.497 138.691 37.567 H138.611C138.339 38.369 136.874 39.194 134.855 39.868C130.148 41.446 122.464 42.307 119.877 40.79C119.5 41.504 118.113 42.34 116.25 43.094C112.416 44.644 106.532 45.87 102.84 45.072C102.381 45.917 100.959 46.836 99.058 47.644C94.946 49.387 88.594 50.578 84.836 49.152C84.376 49.948 83.076 50.861 81.212 51.637C81.098 51.684 80.983 51.732 80.866 51.78C77.253 53.284 71.921 55.503 65.642 54.14C64.76 54.905 62.875 55.489 60.507 55.798C55.934 56.402 49.529 55.913 44.935 53.379C43.629 53.663 41.533 53.461 39.235 52.948C34.88 51.98 29.768 49.951 27.847 48.145C26.652 48.258 24.665 47.783 22.488 46.998C18.871 45.7 14.689 43.545 12.665 41.775C9.995 39.432 9.531 35.742 10.395 33.421 M153.479 24.616C152.914 25.593 151.658 25.924 150.672 25.355C149.686 24.786 149.344 23.532 149.909 22.555C150.473 21.577 151.73 21.247 152.715 21.816C153.701 22.385 154.043 23.639 153.479 24.616"></path></g></g></g><g id="g-root-cp_0o_g-0o_1lt0sxs1liecxu-fill" data-item-order="-386758" transform="translate(308.34765625, 178.34375)"><g id="cp_0o_g-0o_1lt0sxs1liecxu-fill-merged" stroke="none" fill="#545454" fill-opacity="1"><g><path d="M19.435 45.474C20.421 46.043 21.677 45.712 22.241 44.735C22.806 43.758 22.464 42.504 21.478 41.935C20.492 41.366 19.236 41.697 18.672 42.674C18.107 43.651 18.449 44.905 19.435 45.474"></path></g></g></g><g id="g-root-cp_0k_g-0k_1lt0sxs1liecxv-fill" data-item-order="-386752" transform="translate(395.9979248046875, 230.875)"><g id="cp_0k_g-0k_1lt0sxs1liecxv-fill-merged" stroke="none" fill="#4b533a" fill-opacity="1"><g><path d="M20.347 153.911C33.507 153.571 45.897 150.651 55.197 143.761C64.327 136.991 68.487 126.991 68.487 112.361C68.487 108.921 67.667 102.898 67.667 102.898C70.417 96.118 69.247 91.6 69.557 84.77C69.737 80.9 69.877 76.89 69.947 72.95C70.027 68.52 70.027 64.19 69.917 60.25C69.807 56.1 69.567 52.363 69.187 49.423C68.717 45.863 68.017 43.446 67.057 42.786C67.107 39.476 66.637 36.799 65.757 34.409C64.907 32.079 63.687 30.019 62.227 27.899C61.177 26.369 60.007 25.297 58.817 24.467C54.377 20.377 50.497 18.747 47.077 17.617C44.607 14.927 38.197 10 32.697 10C27.217 10 20.607 18.667 17.287 23.827C15.207 27.067 13.577 30.557 12.527 33.447C9.177 43.207 11.717 50.673 11.717 50.673C9.777 57.953 8.557 85.823 13.297 121.583C13.787 125.263 14.247 128.513 14.677 131.413C15.197 134.853 15.677 137.783 16.127 140.263C17.347 147.013 18.297 150.482 18.987 152.242C19.897 154.572 20.347 153.911 20.347 153.911"></path></g></g></g><g id="g-root-cp_0c_g-0c_1cy09s01lieaks-fill" data-item-order="-386746" transform="translate(576.5700073242188, 118.5)"><g id="cp_0c_g-0c_1cy09s01lieaks-fill-merged" stroke="none" fill="#545454" fill-opacity="1"><g><path d="M27.442 58.047C27.479 56.897 28.013 52.171 33.144 44.374C32.864 41.383 30.611 38.055 27.442 38.055C24.273 38.055 22.03 41.383 21.74 44.374C26.872 52.162 27.405 56.888 27.442 58.047 M27.442 58.047C27.386 61.936 26.058 67.218 23.675 72.968C25.376 83.635 27.442 92.628 27.442 92.628C27.442 92.628 29.508 83.635 31.209 72.968C28.835 67.218 27.498 61.936 27.442 58.047"></path></g></g></g><g id="g-root-cp_0b_g-0b_1cy09s01lieakt-fill" data-item-order="-386740" transform="translate(514.0119018554688, 98)"><g id="cp_0b_g-0b_1cy09s01lieakt-fill-merged" stroke="none" fill="#344e57" fill-opacity="1"><g><path d="M120.268 127.072C137.823 137.945 145.264 116.76 151.499 94.145C152.835 89.302 143.534 85.824 136.262 83.908C143.311 83.791 147.865 83.218 150.909 80.365C156.284 75.335 156.022 62.602 157.041 59.367C157.49 57.956 157.995 56.694 158.537 55.525C162.725 46.438 169.24 43.437 169.932 26.338C170.717 7.042 164.734 7.36 151.564 14.428C144.104 18.429 134.158 25.411 124.222 33.984C114.65 42.239 105.087 51.98 97.758 61.965C90.911 71.302 90.082 76.649 89.996 78.164C90.012 78.465 90 78.615 90 78.615C89.99 78.615 89.978 78.465 89.996 78.164C89.911 76.65 89.09 71.302 82.241 61.965C74.913 51.98 65.35 42.239 55.778 33.984C45.842 25.411 35.896 18.429 28.436 14.428C15.266 7.36 9.283 7.042 10.068 26.338C10.76 43.437 17.257 46.436 21.444 55.523C21.987 56.692 22.5 57.956 22.949 59.367C23.968 62.602 23.706 75.335 29.081 80.365C32.098 83.193 36.783 83.784 43.729 83.908C36.457 85.824 27.156 89.302 28.493 94.145C34.728 116.76 42.178 137.935 59.733 127.062C60.022 126.894 60.293 126.736 60.583 126.539C78.054 114.9 89.832 90.397 90 78.617C90.168 90.397 101.946 114.9 119.417 126.539C119.52 126.609 120.268 126.984 120.268 127.072"></path></g></g></g><g id="g-root-tx_construy_18i6rnk1liebd2-fill" data-item-order="0" transform="translate(252, 38)"><g id="tx_construy_18i6rnk1liebd2-fill-merged" stroke="none" fill="#f4f4f4" fill-opacity="1"><g><text style="font: bold 25px Roboto, sans-serif; white-space: pre;" transform="translate(184, 28)" font-weight="bold" font-size="25px" font-family="Roboto, sans-serif"><tspan x="-169.38" y="14.6" dominant-baseline="ideographic">Construyendo una página web</tspan></text></g></g></g><g id="g-root-tx_tecnolog_mbpq4g1lieakv-fill" data-item-order="0" transform="translate(198, 380)"><g id="tx_tecnolog_mbpq4g1lieakv-fill-merged" stroke="none" fill="#b7b7b7" fill-opacity="1"><g><text style="font: 20px Roboto, sans-serif; white-space: pre;" transform="translate(70, 34)" font-size="20px" font-family="Roboto, sans-serif"><tspan x="-56.56" y="0" dominant-baseline="ideographic">Tecnologías </tspan><tspan x="-55.28" y="24" dominant-baseline="ideographic">individuales</tspan></text></g></g></g><g id="g-root-tx_pginaweb_1luw8741liebyb-fill" data-item-order="0" transform="translate(534, 380)"><g id="tx_pginaweb_1luw8741liebyb-fill-merged" stroke="none" fill="#b7b7b7" fill-opacity="1"><g><text style="font: 20px Roboto, sans-serif; white-space: pre;" transform="translate(70, 34)" font-size="20px" font-family="Roboto, sans-serif"><tspan x="-54.1" y="0" dominant-baseline="ideographic">Página web </tspan><tspan x="-44.25" y="24" dominant-baseline="ideographic">completa</tspan></text></g></g></g><g id="g-root-tx_combinac_58olc1lieakh-fill" data-item-order="0" transform="translate(360, 440)"><g id="tx_combinac_58olc1lieakh-fill-merged" stroke="none" fill="#b7b7b7" fill-opacity="1"><g><text style="font: 20px Roboto, sans-serif; white-space: pre;" transform="translate(76, 22)" font-size="20px" font-family="Roboto, sans-serif"><tspan x="-58.89" y="12" dominant-baseline="ideographic">Combinación</tspan></text></g></g></g><g id="g-root-tx_htmlcssy_dg2pvk1liec5c-fill" data-item-order="0" transform="translate(198, 440)"><g id="tx_htmlcssy_dg2pvk1liec5c-fill-merged" stroke="none" fill="#f4f4f4" fill-opacity="1"><g><text style="font: 15px Roboto, sans-serif; white-space: pre;" transform="translate(70, 40)" font-size="15px" font-family="Roboto, sans-serif"><tspan x="-55.16" y="-9.4" dominant-baseline="ideographic">HTML, CSS y JS </tspan><tspan x="-55.57" y="8.6" dominant-baseline="ideographic">como entidades </tspan><tspan x="-36.66" y="26.6" dominant-baseline="ideographic">separadas</tspan></text></g></g></g><g id="g-root-tx_unapgina_18k26ww1lieadg-fill" data-item-order="0" transform="translate(534, 440)"><g id="tx_unapgina_18k26ww1lieadg-fill-merged" stroke="none" fill="#f4f4f4" fill-opacity="1"><g><text style="font: 15px Roboto, sans-serif; white-space: pre;" transform="translate(70, 28)" font-size="15px" font-family="Roboto, sans-serif"><tspan x="-53.18" y="-0.4" dominant-baseline="ideographic">Una página web </tspan><tspan x="-57.59" y="17.6" dominant-baseline="ideographic">funcional y visual</tspan></text></g></g></g><g id="g-root-tx_htmlcssy_1qapqbk1lieb62-fill" data-item-order="0" transform="translate(360, 476)"><g id="tx_htmlcssy_1qapqbk1lieb62-fill-merged" stroke="none" fill="#f4f4f4" fill-opacity="1"><g><text style="font: 15px Roboto, sans-serif; white-space: pre;" transform="translate(76, 28)" font-size="15px" font-family="Roboto, sans-serif"><tspan x="-53.29" y="-0.4" dominant-baseline="ideographic">HTML, CSS y JS </tspan><tspan x="-58.21" y="17.6" dominant-baseline="ideographic">trabajando juntos</tspan></text></g></g></g><g id="g-root-tf_1qa362o1liqzno-stroke" data-item-order="-749952"></g><g id="g-root-cp_0r_g-0r_4j6rgg1liearr-stroke" data-item-order="-386774" transform="translate(17.998992919921875, 206.5625)"><g id="cp_0r_g-0r_4j6rgg1liearr-stroke" fill="none" stroke-linecap="round" stroke-linejoin="round" stroke-miterlimit="4" stroke="#f79438" stroke-width="2" stroke-opacity="1"><g><path d="M 174.34103 35.4868C 166.33993 34.6327 158.26463 33.7101 150.01623 32.7678L 149.78823 32.7417C 102.73423 27.3639 70.24373 47.5987 36.81263 68.4194C 28.03353 73.8869 19.18963 79.3949 10.00003 84.49M 266.42363 39.6441C 263.33343 39.764 260.27953 39.8533 257.25773 39.9139M 285.48533 38.5357C 281.26803 38.8616 277.12613 39.1289 273.05023 39.3421M 287.72763 38.3575C 305.46053 36.9087 324.53593 34.4231 345.62643 30.5696C 400.31133 20.5822 429.82683 28.0364 464.86433 36.8853C 502.03073 46.2717 545.41053 57.2274 631.63623 50.5991C 631.90763 50.5705 632.19873 50.5402 632.50883 50.508C 642.08823 49.5109 669.68523 46.6387 689.15953 34.3979C 689.15953 34.3979 699.93413 27.4973 710.98293 10C 706.84743 24.1131 704.89183 30.2456 700.04633 39.0182C 697.46793 43.6866 688.58653 50.4911 678.67133 53.4913C 694.61543 58.9398 703.14793 66.7644 717.94603 87.0219L 717.93363 87.0219C 717.93363 87.0219 781.24903 93.0584 802.00133 107.8915C 770.09453 101.4405 747.46243 99.9121 732.43493 98.8973C 721.63143 98.1678 714.75823 97.7036 711.19483 95.8666C 688.62393 72.1048 667.74713 60.7639 647.49313 61.592C 538.47803 71.2201 490.63233 60.0005 454.45803 51.5178C 447.65443 49.9224 441.26363 48.4238 434.95653 47.1789M 398.26193 43.8841C 385.21473 44.3487 370.39243 46.6369 351.79233 51.7032C 269.35223 74.1625 247.26783 72.1031 178.40243 65.6816L 178.40123 65.6815C 169.55023 64.8561 159.92643 63.9587 149.30243 63.0321C 109.11783 59.5254 78.11803 83.7019 46.95403 108.0066C 34.84383 117.4513 22.70843 126.9156 10.00003 134.782"></path></g></g></g><g id="g-root-cp_0q_g-0q_3d9c01liebk0-stroke" data-item-order="-386768" transform="translate(196.9580078125, 229.21875)"><g id="cp_0q_g-0q_3d9c01liebk0-stroke" fill="none" stroke-linecap="round" stroke-linejoin="round" stroke-miterlimit="4" stroke="#ababab" stroke-width="2" stroke-opacity="1"><g><path d="M 103.1467 10.7813C 103.6529 12.7488 104.871 15.977 107.4156 16.0421C 110.163 16.1064 111.3141 12.0516 111.7251 10C 108.8331 10.6191 105.607 10.9511 103.1467 10.7813ZM 86.1776 14.5554C 86.916 16.3268 88.7628 19.8471 91.4864 19.4374C 94.1078 19.0396 94.5917 15.1305 94.6584 12.9745C 92.0429 13.836 88.9098 14.4811 86.1776 14.5554ZM 68.1893 18.9991C 68.8422 20.8981 70.3448 24.1489 72.9483 23.9884C 75.6027 23.822 76.4259 19.9436 76.68 17.8133C 73.9792 18.6372 70.8716 19.1556 68.1982 19.0043L 68.1893 18.9991ZM 49.0547 23.5126C 49.0209 25.499 50.5258 29.3128 53.1903 29.3763C 55.8458 29.4347 57.2141 24.6427 57.6557 22.538C 55.1541 23.0168 52.219 23.8647 49.0547 23.5126ZM 27.7994 23.8491C 27.831 25.8966 28.2777 28.9153 30.5667 29.588C 33.0279 30.3129 35.0787 27.2141 36.0955 25.2881C 33.3532 25.215 30.4377 24.7824 27.7994 23.8491ZM 10.0978 18.8305C 9.8757 20.8024 9.8257 24.4546 12.2918 25.4183C 14.573 26.3106 16.7893 23.7085 18.0088 21.8641C 15.1662 21.1197 12.2066 20.0009 10.0978 18.8305Z"></path></g></g></g><g id="g-root-cp_0p_g-0p_1q8ub281liec5l-stroke" data-item-order="-386764" transform="translate(177.11129760742188, 198.46875)"><g id="cp_0p_g-0p_1q8ub281liec5l-stroke" fill="none" stroke-linecap="round" stroke-linejoin="round" stroke-miterlimit="4" stroke="#a6da37" stroke-width="2" stroke-opacity="1"><g><path d="M 27.18333 25.6758C 19.79463 25.2208 12.29093 28.3451 10.39543 33.4213C 9.53143 35.7423 9.99543 39.4317 12.66453 41.775C 14.68873 43.5454 18.87073 45.7003 22.48843 46.9984C 24.66513 47.7832 26.65203 48.2576 27.84733 48.1454C 29.76813 49.9505 34.88003 51.9796 39.23513 52.9484C 41.53323 53.4611 43.62893 53.663 44.93533 53.3789C 49.52903 55.9131 55.93423 56.4021 60.50743 55.7978C 62.87503 55.4894 64.75993 54.9052 65.64193 54.1402C 72.12423 55.5467 77.59713 53.1366 81.21173 51.6368C 83.07593 50.8607 84.37633 49.948 84.83613 49.1516C 88.59393 50.5779 94.94583 49.3871 99.05823 47.6437C 100.95903 46.8365 102.38083 45.9169 102.83953 45.0721L 102.84463 45.0632C 102.84303 45.0662 102.84113 45.0691 102.83953 45.0721C 106.53153 45.8705 112.41603 44.6437 116.25013 43.0937C 118.11303 42.3404 119.50003 41.504 119.87683 40.7895C 122.46363 42.3066 130.14803 41.4457 134.85463 39.8685C 136.87423 39.194 138.33883 38.3691 138.61113 37.5471L 138.69113 37.5672C 142.39113 38.4968 158.32923 42.5016 163.15963 32.5596C 164.14973 30.5356 164.98173 25.1168 156.93983 18.1259C 149.38113 11.5556 136.44653 8.4211 134.45273 11.9775C 133.87543 11.2667 132.46623 10.7398 130.64633 10.4088C 125.41873 9.4672 116.87113 10.1336 115.44573 12.6024C 114.52653 12.0717 113.04403 11.8988 111.32463 11.9915C 105.88433 12.2839 97.93833 15.2469 96.67973 18.107C 95.64433 17.7569 94.17933 17.7379 92.52743 17.9403C 87.06893 18.6352 79.58533 21.9098 78.90353 24.5129C 77.68063 24.0547 76.28793 23.9113 74.84273 23.9618C 69.80043 24.1418 64.09113 26.8999 62.73273 28.5107C 61.67443 27.9941 60.20303 27.6157 58.59483 27.3715C 54.19993 26.6982 48.70433 27.0029 47.02853 28.3597C 45.81083 27.7275 44.44253 27.1924 43.03723 26.7822C 38.86343 25.5405 34.29563 25.3115 32.04723 26.5264C 30.47483 26.0551 28.83633 25.7807 27.18333 25.6758ZM 22.48843 46.9984C 21.87503 45.1341 21.58843 42.7038 21.99393 39.5282C 21.59353 42.6949 21.88393 45.1393 22.48843 46.9984ZM 27.18333 25.6758C 24.47513 29.3979 22.50343 35.4923 21.99393 39.5282M 32.04723 26.5264C 28.87623 28.247 22.79733 43.4128 27.84733 48.1454M 43.03723 26.7822C 40.11423 31.1236 37.26963 41.162 37.90343 47.9581C 38.09573 50.0158 38.58953 51.6554 39.23513 52.9484M 47.02853 28.3597C 44.53203 30.3753 38.20823 49.6776 44.94263 53.3888M 58.59483 27.3715C 55.79863 32.6474 55.07373 44.001 57.37093 50.6366L 57.37603 50.6277C 58.19943 53.0145 59.31443 54.6489 60.50743 55.7978M 62.73273 28.5107C 59.70063 32.093 57.83063 52.4384 65.64193 54.1402M 74.84273 23.9618C 74.40103 27.7772 74.28263 45.666 81.21173 51.6368M 84.83613 49.1516C 78.89903 46.9037 78.34703 26.6103 78.90353 24.5129M 92.52743 17.9403C 92.02113 21.105 92.45933 26.6322 92.70743 29.1705C 93.19343 34.0996 93.86533 39.4901 96.14503 43.9093C 96.97543 45.5213 97.95173 46.7571 99.05823 47.6437C 100.96573 46.8337 102.39113 45.9105 102.84463 45.0632M 96.67973 18.107C 95.74443 20.2216 96.55793 43.7102 102.82603 45.0756M 116.25013 43.0937C 114.59333 41.3466 112.74323 38.6152 111.46083 27.7282L 111.47483 27.7245C 111.13263 24.8959 110.24613 16.2298 111.32463 11.9915C 110.24613 16.2298 111.13363 24.8949 111.46173 27.7272M 119.87683 40.7895C 115.15833 38.0181 114.02043 15.0712 115.44573 12.6024M 130.64633 10.4088C 127.28393 17.2219 129.78163 30.0025 132.35623 35.8898C 132.91133 37.1541 133.69093 38.6893 134.85463 39.8685M 134.45273 11.9775C 131.03483 18.0624 135.07613 36.6623 138.61113 37.5471C 138.63713 37.5536 138.66383 37.5603 138.69113 37.5672"></path></g></g></g><g id="g-root-cp_0o_g-0o_1lt0sxs1liecxu-stroke" data-item-order="-386758" transform="translate(308.34765625, 178.34375)"><g id="cp_0o_g-0o_1lt0sxs1liecxu-stroke" fill="none" stroke-linecap="round" stroke-linejoin="round" stroke-miterlimit="4" stroke="#ababab" stroke-width="2" stroke-opacity="1"><g><path d="M 19.434714 45.47425C 20.420514 46.04345 21.677114 45.71245 22.241414 44.73505C 22.805714 43.75765 22.464014 42.50395 21.478214 41.93475C 20.492414 41.36565 19.235814 41.69655 18.671514 42.67395C 18.107214 43.65135 18.448914 44.90515 19.434714 45.47425ZM 36.4862 17.3664C 30.7708 12.1789 22.2843 14.5941 12.5621 31.4333M 27.3484 10.7689C 20.3684 7.8952 13.4119 12.7513 10 30.8622"></path></g></g></g><g id="g-root-cp_0k_g-0k_1lt0sxs1liecxv-stroke" data-item-order="-386752" transform="translate(395.9979248046875, 230.875)"><g id="cp_0k_g-0k_1lt0sxs1liecxv-stroke" fill="none" stroke-linecap="round" stroke-linejoin="round" stroke-miterlimit="4" stroke="#a6da37" stroke-width="2" stroke-opacity="1"><g><path d="M 20.346961 153.9106C 33.506961 153.5706 45.896961 150.6506 55.196961 143.7606C 64.326961 136.9906 68.486961 126.9906 68.486961 112.3606C 68.486961 108.9206 67.666561 102.8978 67.666561 102.8978C 70.416561 96.1178 69.246861 91.6 69.556861 84.77C 69.736861 80.9 69.876861 76.89 69.946861 72.95C 70.026861 68.52 70.026861 64.19 69.916861 60.25C 69.806861 56.1 69.566661 52.3632 69.186661 49.4232C 68.716661 45.8632 68.016961 43.4462 67.056961 42.7862C 67.106961 39.4762 66.637061 36.7988 65.757061 34.4088C 64.907061 32.0788 63.687061 30.0187 62.227061 27.8987C 61.177061 26.3687 60.007461 25.2972 58.817461 24.4672C 54.377461 20.3772 50.497361 18.7472 47.077361 17.6172C 44.607361 14.9272 38.197161 10 32.697161 10C 27.217161 10 20.607461 18.6672 17.287461 23.8272C 15.207461 27.0672 13.577361 30.5572 12.527361 33.4472C 9.177361 43.2072 11.716861 50.6731 11.716861 50.6731C 9.776861 57.9531 8.556861 85.8231 13.296861 121.5831C 13.786861 125.2631 14.247061 128.5125 14.677061 131.4125C 15.197061 134.8525 15.677061 137.7825 16.127061 140.2625C 17.347061 147.0125 18.297061 150.4825 18.987061 152.2425C 19.897061 154.5725 20.346961 153.9106 20.346961 153.9106ZM 20.346961 153.9106C 33.506961 153.5706 45.896961 150.6506 55.196961 143.7606C 64.326961 136.9906 68.486961 126.9906 68.486961 112.3606C 68.486961 108.9206 67.656961 102.8906 67.656961 102.8906C 59.066961 126.9506 28.916961 135.9106 20.336961 153.9106L 20.346961 153.9106ZM 20.346361 153.9131C 28.926361 135.9131 59.066361 126.9531 67.666361 102.8931C 67.666361 102.8931 68.396361 100.6031 62.806361 91.3331C 61.666361 89.4431 58.076361 83.0731 58.076361 83.0731C 56.686361 72.8131 51.076361 67.4531 51.076361 67.4531C 51.076361 67.4531 52.956361 79.6431 45.876361 90.0331C 26.536361 118.3831 16.236361 138.2731 18.986361 152.2531C 19.896361 154.5831 20.356361 153.9131 20.356361 153.9131L 20.346361 153.9131ZM 45.877061 90.0225C 52.957061 79.6425 51.076361 67.4531 51.076361 67.4531C 50.746361 62.9031 47.507061 60.0125 47.507061 60.0125C 45.277061 53.7125 45.407061 52.0925 33.297061 46.7725C 32.367061 46.3625 31.457061 45.9625 30.557061 45.5625C 18.897061 65.0425 13.797061 108.6525 14.677061 131.4125C 15.197061 134.8525 15.677061 137.7825 16.127061 140.2625C 17.347061 147.0125 18.297061 150.4825 18.987061 152.2425C 16.237061 138.2625 26.537061 118.3725 45.877061 90.0225ZM 14.677061 131.4125C 13.797061 108.6525 18.896861 65.0431 30.556861 45.5531C 22.046861 41.7331 15.396861 38.1831 12.526861 33.4531C 9.176861 43.2131 11.716861 50.6731 11.716861 50.6731C 9.776861 57.9531 8.556861 85.8231 13.296861 121.5831C 13.786861 125.2631 14.247061 128.5125 14.677061 131.4125ZM 41.466961 50.9063C 45.656961 48.3263 66.026961 42.0862 67.056961 42.7862C 67.106961 39.4762 66.626961 36.7963 65.746961 34.4063C 63.806961 36.4662 60.556961 38.6762 55.476961 40.5262C 49.056961 42.8662 40.036961 45.1862 30.546961 45.5462C 31.436961 45.9462 32.356961 46.3562 33.286961 46.7562C 37.046961 48.4062 39.626961 49.6962 41.466961 50.8862L 41.466961 50.9063ZM 14.217061 35.6588C 17.607061 39.3388 23.427061 42.3488 30.557061 45.5488C 40.057061 45.1788 49.067061 42.8687 55.487061 40.5287C 60.557061 38.6787 63.817061 36.4688 65.757061 34.4088C 64.907061 32.0788 63.687061 30.0187 62.227061 27.8987C 61.177061 26.3687 59.997061 25.2987 58.807061 24.4688C 53.597061 27.5988 45.027061 32.0687 35.577061 34.2487C 26.227061 36.3987 19.527061 36.2788 14.207061 35.6588M 47.077361 17.6172C 43.607361 19.4772 38.817361 21.5472 32.917361 22.8872C 25.787361 24.5072 21.047461 24.5372 17.287461 23.8272C 15.207461 27.0672 13.577361 30.5572 12.527361 33.4472C 12.997361 34.2172 13.557361 34.9472 14.217361 35.6572C 19.537361 36.2772 26.237361 36.3972 35.587361 34.2472C 45.037361 32.0672 53.607461 27.5972 58.817461 24.4672C 54.377461 20.3772 50.507361 18.7472 47.087361 17.6172L 47.077361 17.6172ZM 32.697161 10C 27.217161 10 20.607161 18.67 17.287161 23.83C 21.047161 24.53 25.787161 24.51 32.917161 22.89C 38.817161 21.55 43.607161 19.48 47.077161 17.62C 44.607161 14.93 38.197161 10 32.697161 10ZM 69.546561 84.7578C 68.616561 85.6878 66.106561 87.1878 61.396561 88.9178C 61.966561 89.9178 62.486561 90.7978 62.806561 91.3378C 68.396561 100.6078 67.666561 102.8978 67.666561 102.8978C 70.416561 96.1178 69.236561 91.5878 69.546561 84.7578ZM 58.076861 83.07C 56.686861 72.81 51.076861 67.45 51.076861 67.45C 51.056861 67.22 51.036861 66.99 51.006861 66.77C 57.326861 65.82 66.126861 62.63 69.916861 60.25C 70.026861 64.19 70.026861 68.52 69.946861 72.95C 69.876861 76.89 69.736861 80.9 69.556861 84.77C 68.636861 85.69 66.116861 87.2 61.406861 88.93C 59.936861 86.38 58.086861 83.08 58.086861 83.08L 58.076861 83.07ZM 46.286661 56.5932C 46.676661 57.5732 47.046661 58.6932 47.506661 60.0032C 47.506661 60.0032 50.426661 62.6032 51.006661 66.7532C 57.326661 65.8032 66.126661 62.6132 69.916661 60.2332C 69.806661 56.0832 69.566661 52.3632 69.186661 49.4232C 68.716661 45.8632 68.026661 43.4332 67.066661 42.7732C 66.036661 42.0732 45.666661 48.3032 41.476661 50.8932C 44.316661 52.7332 45.386661 54.3232 46.286661 56.5832"></path></g></g></g><g id="g-root-cp_0c_g-0c_1cy09s01lieaks-stroke" data-item-order="-386746" transform="translate(576.5700073242188, 118.5)"><g id="cp_0c_g-0c_1cy09s01lieaks-stroke" fill="none" stroke-linecap="round" stroke-linejoin="round" stroke-miterlimit="4" stroke="#ababab" stroke-width="2" stroke-opacity="1"><g><path d="M 27.441834 58.046888C 27.479234 56.896988 28.012534 52.171388 33.144334 44.374488C 32.863934 41.382888 30.611134 38.054688 27.442234 38.054688C 24.273434 38.054688 22.030034 41.382888 21.740234 44.374488C 26.872134 52.162088 27.404534 56.887587 27.441834 58.046888ZM 27.441834 58.046888C 27.385834 61.935987 26.058434 67.218087 23.674834 72.967588C 25.376034 83.634588 27.441834 92.628188 27.441834 92.628188C 27.441834 92.628188 29.507734 83.634588 31.209034 72.967588C 28.834734 67.218087 27.497934 61.935987 27.441834 58.046888ZM 44.885 10.283C 36.2758 8.4039 29.2744 15.6866 29.2744 38.0583M 10 10.283C 18.6092 8.4039 25.6106 15.6866 25.6106 38.0583"></path></g></g></g><g id="g-root-cp_0b_g-0b_1cy09s01lieakt-stroke" data-item-order="-386740" transform="translate(514.0119018554688, 98)"><g id="cp_0b_g-0b_1cy09s01lieakt-stroke" fill="none" stroke-linecap="round" stroke-linejoin="round" stroke-miterlimit="4" stroke="#1ac3fb" stroke-width="2" stroke-opacity="1"><g><path d="M 136.262061 83.9078C 132.074261 83.9826 126.998461 83.8891 120.913161 84.0106C 138.094161 89.6293 142.749261 92.6863 139.477661 102.4558C 135.822661 113.3753 132.410761 130.736 120.258861 127.0619C 137.813761 137.9346 145.263761 116.7595 151.498661 94.1447C 152.835361 89.3021 143.534461 85.8149 136.262061 83.8984L 136.262061 83.9078ZM 120.267761 127.0721C 132.419761 130.7462 135.831561 113.3854 139.486561 102.466C 142.758261 92.6965 138.103061 89.6301 120.922161 84.0208C 120.922161 84.0208 117.379361 84.1049 115.463161 84.1797C 97.936261 84.9089 90.000061 78.6172 90.000061 78.6172C 90.168361 90.3967 101.946361 114.9 119.417161 126.5392C 119.706961 126.7356 119.977961 126.8945 120.267761 127.0628L 120.267761 127.0721ZM 157.050361 59.3672C 150.058261 60.2647 113.714661 55.4781 89.990261 78.6164C 89.990261 78.6164 97.926461 84.9082 115.453261 84.1789C 135.260961 83.3563 145.543361 85.3943 150.908961 80.3646C 156.283861 75.335 156.022061 62.6019 157.040961 59.3672L 157.050361 59.3672ZM 161.790061 31.9453C 152.722861 42.7712 117.538261 39.8825 90.000061 78.6146C 113.724361 55.4669 150.068161 60.2535 157.060161 59.3654C 157.508861 57.9537 158.004261 56.6916 158.546461 55.523C 161.070261 47.9598 162.042461 38.798 161.799361 31.9453L 161.790061 31.9453ZM 90.000061 78.6146C 117.538261 39.8825 152.722861 42.7712 161.790061 31.9453C 161.612461 26.7848 160.733561 22.9241 159.322061 22.0546C 155.695161 19.8202 141.683061 20.5121 124.221561 33.9837C 114.649561 42.2387 105.086961 51.9802 97.758361 61.9647C 89.551161 73.1553 89.990461 78.615 89.990461 78.615L 90.000061 78.6146ZM 151.563661 14.4277C 144.104161 18.429 134.158261 25.4126 124.221761 33.9854C 141.683161 20.5138 155.695261 19.822 159.322161 22.0563C 162.621861 24.085 162.967761 42.2591 158.536961 55.5251C 162.724661 46.438 169.239961 43.4371 169.931761 26.3381C 170.716961 7.0421 164.734461 7.36 151.563661 14.4277ZM 43.729361 83.9078C 43.912261 83.9111 43.542961 83.9051 43.729361 83.9078C 47.808561 83.966 53.258761 83.8944 59.078161 84.0106C 41.897261 89.6293 37.242061 92.6863 40.513761 102.4558C 44.168661 113.3753 47.580561 130.736 59.732561 127.0619C 42.177661 137.9346 34.727561 116.7595 28.492661 94.1447C 27.155961 89.3021 36.456861 85.8243 43.729361 83.9078ZM 59.732561 127.0721C 47.580561 130.7462 44.168661 113.3854 40.513761 102.466C 37.242061 92.6965 41.897261 89.6301 59.078161 84.0208C 59.078161 84.0208 62.620961 84.1049 64.537161 84.1797C 82.064061 84.9089 90.000061 78.6172 90.000061 78.6172C 89.831761 90.3967 78.053961 114.9 60.583161 126.5392C 60.293361 126.7356 60.022361 126.8936 59.732561 127.0619L 59.732561 127.0721ZM 18.200761 31.9453C 27.267961 42.7712 62.452361 39.8828 89.990461 78.615C 66.266161 55.4673 29.922761 60.2535 22.930661 59.3654C 22.481961 57.9537 21.986561 56.6916 21.444461 55.523C 18.920561 47.9598 17.948461 38.798 18.191461 31.9453L 18.200761 31.9453ZM 90.000061 78.6146C 62.461861 39.8825 27.277261 42.7716 18.210061 31.9457C 18.387661 26.7851 19.266361 22.9241 20.677861 22.0546C 24.304661 19.8202 38.316861 20.5121 55.778261 33.9837C 65.350261 42.2387 74.912861 51.9802 82.241461 61.9647C 90.448661 73.1553 90.009361 78.615 90.009361 78.615L 90.000061 78.6146ZM 28.436361 14.4277C 35.895861 18.429 45.841761 25.4126 55.778261 33.9854C 38.316861 20.5138 24.304761 19.822 20.677861 22.0563C 17.378161 24.085 17.032261 42.2591 21.463061 55.5251C 17.275361 46.438 10.760061 43.4371 10.068261 26.3381C 9.283061 7.0421 15.265561 7.36 28.436361 14.4277ZM 43.729361 83.9078C 36.782561 83.7839 32.098261 83.1931 29.080961 80.3646C 23.706061 75.335 23.967761 62.6019 22.948861 59.3672L 22.939561 59.3672C 29.931561 60.2647 66.275761 55.4789 90.000061 78.6172C 90.000061 78.6172 82.063461 84.9082 64.536561 84.1789"></path></g></g></g><g id="g-root-tx_construy_18i6rnk1liebd2-stroke" data-item-order="0" transform="translate(252, 38)"></g><g id="g-root-tx_tecnolog_mbpq4g1lieakv-stroke" data-item-order="0" transform="translate(198, 380)"></g><g id="g-root-tx_pginaweb_1luw8741liebyb-stroke" data-item-order="0" transform="translate(534, 380)"></g><g id="g-root-tx_combinac_58olc1lieakh-stroke" data-item-order="0" transform="translate(360, 440)"></g><g id="g-root-tx_htmlcssy_dg2pvk1liec5c-stroke" data-item-order="0" transform="translate(198, 440)"></g><g id="g-root-tx_unapgina_18k26ww1lieadg-stroke" data-item-order="0" transform="translate(534, 440)"></g><g id="g-root-tx_htmlcssy_1qapqbk1lieb62-stroke" data-item-order="0" transform="translate(360, 476)"></g></g></g></svg>