<?xml version="1.0" encoding="utf-8" standalone="yes"?>
<!DOCTYPE svg PUBLIC "-//W3C//DTD SVG 1.1//EN" "http://www.w3.org/Graphics/SVG/1.1/DTD/svg11.dtd">
<svg style="fill:none;stroke:none;fill-rule:evenodd;clip-rule:evenodd;stroke-linecap:round;stroke-linejoin:round;stroke-miterlimit:1.5;" version="1.1" xmlns="http://www.w3.org/2000/svg" xmlns:xlink="http://www.w3.org/1999/xlink" width="912" height="540" viewBox="0 0 912 540"><style class="text-font-style fontImports" data-font-family="Roboto">@import url(https://fonts.googleapis.com/css2?family=Roboto:wght@400;700&amp;amp;display=block);</style><rect id="" x="0" y="0" width="912" height="540" style="fill: #2c2c2c;"></rect><g id="items" style="isolation: isolate"><g id="blend" style="mix-blend-mode: normal"><g id="g-root-tf_1414nzk1hmv8jn-fill" data-item-order="-738720"><g id="tf_1414nzk1hmv8jn-fill-merged" stroke="none" fill="#2c2c2c" fill-opacity="1"><g><path d="M0 0 H912 V540 H0 V0"></path></g></g></g><g id="g-root-cp_1_container_959g8g1hmedqi-fill" data-item-order="-383604" transform="translate(52, 129)"><g id="cp_1_container_959g8g1hmedqi-fill-merged" stroke="none" fill="#54502f" fill-opacity="1"><g><path d="M125.5 95.5L76 141L49.5 140L10 100.5L13.5 73.5L42 82.5L35.5 57L64 10L95 52L88 80.5L122 66L125.5 95.5"></path></g></g></g><g id="g-root-cp_2_container_1_4pfy401hmeeir-fill" data-item-order="-383596" transform="translate(218, 133)"><g id="cp_2_container_1_4pfy401hmeeir-fill-merged" stroke="none" fill="#5c4938" fill-opacity="1"><g><path d="M10 73.5L70 10L130.5 67L70 132L10 73.5"></path></g></g></g><g id="g-root-cp_3_container_2_1uuwzu81hmef4c-fill" data-item-order="-383588" transform="translate(399, 132)"><g id="cp_3_container_2_1uuwzu81hmef4c-fill-merged" stroke="none" fill="#68403f" fill-opacity="1"><g><path d="M10 85.5L57.5 134.5L104.5 80.5L96 70.5L45.5 64L18.5 74.5L10 85.5 M21 53L71 60L102 49L60 10L21 53"></path></g></g></g><g id="g-root-cp_4_container_3_1uuwzu81hmef4d-fill" data-item-order="-383580" transform="translate(566, 152)"><g id="cp_4_container_3_1uuwzu81hmef4d-fill-merged" stroke="none" fill="#69425a" fill-opacity="1"><g><path d="M10.64 36.341L57.588 94.293L105.197 36.341C106.96 34.805 106.519 29.098 96.601 19.219C93.294 15.927 84.566 10 57.588 10C30.609 10 20.779 15.927 17.914 19.219C9.318 29.098 9.318 33.488 10.64 36.341"></path></g></g></g><g id="g-root-cp_5_container_4_1q5qdf41hmfrba-fill" data-item-order="-383572" transform="translate(734, 151)"><g id="cp_5_container_4_1q5qdf41hmfrba-fill-merged" stroke="none" fill="#60436d" fill-opacity="1"><g><path d="M10.64 36.707L57.588 95.463L105.197 36.707C105.915 36.073 106.267 34.738 105.763 32.701C105.03 29.736 102.481 25.285 96.601 19.348C93.294 16.009 84.566 10 57.588 10C30.609 10 20.779 16.009 17.914 19.348C12.468 25.692 10.472 29.804 10.077 32.701C9.849 34.377 10.156 35.647 10.64 36.707"></path></g></g></g><g id="g-root-tx_aplicaci_1ha3d681hmfs3z-fill" data-item-order="0" transform="translate(296, 38)"><g id="tx_aplicaci_1ha3d681hmfs3z-fill-merged" stroke="none" fill="#f4f4f4" fill-opacity="1"><g><text style="font: bold 25px Roboto, sans-serif; white-space: pre;" transform="translate(160, 28)" font-weight="bold" font-size="25px" font-family="Roboto, sans-serif"><tspan x="-143.11" y="14.6" dominant-baseline="ideographic">Aplicación de estilos CSS</tspan></text></g></g></g><g id="g-root-tx_implemen_m7zbe81hmfswa-fill" data-item-order="0" transform="translate(206, 314)"><g id="tx_implemen_m7zbe81hmfswa-fill-merged" stroke="none" fill="#f79438" fill-opacity="1"><g><text style="font: 20px Roboto, sans-serif; white-space: pre;" transform="translate(88, 34)" font-size="20px" font-family="Roboto, sans-serif"><tspan x="-74.02" y="0" dominant-baseline="ideographic">Implementación </tspan><tspan x="-33.79" y="24" dominant-baseline="ideographic">de CSS</tspan></text></g></g></g><g id="g-root-tx_seleccin_4hbrzk1hmfs3o-fill" data-item-order="0" transform="translate(380, 314)"><g id="tx_seleccin_4hbrzk1hmfs3o-fill-merged" stroke="none" fill="#fb6762" fill-opacity="1"><g><text style="font: 20px Roboto, sans-serif; white-space: pre;" transform="translate(76, 34)" font-size="20px" font-family="Roboto, sans-serif"><tspan x="-59.01" y="0" dominant-baseline="ideographic">Selección de </tspan><tspan x="-49.16" y="24" dominant-baseline="ideographic">elementos</tspan></text></g></g></g><g id="g-root-tx_definici_1q6zblc1hmfthi-fill" data-item-order="0" transform="translate(548, 302)"><g id="tx_definici_1q6zblc1hmfthi-fill-merged" stroke="none" fill="#f366bb" fill-opacity="1"><g><text style="font: 20px Roboto, sans-serif; white-space: pre;" transform="translate(76, 34)" font-size="20px" font-family="Roboto, sans-serif"><tspan x="-60.16" y="0" dominant-baseline="ideographic">Definición de </tspan><tspan x="-31.95" y="24" dominant-baseline="ideographic">estilos</tspan></text></g></g></g><g id="g-root-tx_htmlsine_18egcxc1hmftog-fill" data-item-order="0" transform="translate(38, 344)"><g id="tx_htmlsine_18egcxc1hmftog-fill-merged" stroke="none" fill="#ffe711" fill-opacity="1"><g><text style="font: 20px Roboto, sans-serif; white-space: pre;" transform="translate(82, 22)" font-size="20px" font-family="Roboto, sans-serif"><tspan x="-69.46" y="12" dominant-baseline="ideographic">HTML sin estilo</tspan></text></g></g></g><g id="g-root-tx_htmlcone_18gbs6o1hmfsow-fill" data-item-order="0" transform="translate(728, 320)"><g id="tx_htmlcone_18gbs6o1hmfsow-fill-merged" stroke="none" fill="#cb68f9" fill-opacity="1"><g><text style="font: 20px Roboto, sans-serif; white-space: pre;" transform="translate(64, 34)" font-size="20px" font-family="Roboto, sans-serif"><tspan x="-48.5" y="0" dominant-baseline="ideographic">HTML con </tspan><tspan x="-26.79" y="24" dominant-baseline="ideographic">estilo</tspan></text></g></g></g><g id="g-root-tx_pginaweb_v3mbn41hmfs3l-fill" data-item-order="0" transform="translate(38, 380)"><g id="tx_pginaweb_v3mbn41hmfs3l-fill-merged" stroke="none" fill="#f4f4f4" fill-opacity="1"><g><text style="font: 15px Roboto, sans-serif; white-space: pre;" transform="translate(82, 28)" font-size="15px" font-family="Roboto, sans-serif"><tspan x="-64.43" y="-0.4" dominant-baseline="ideographic">Página web básica </tspan><tspan x="-53.01" y="17.6" dominant-baseline="ideographic">sin estilo visual</tspan></text></g></g></g><g id="g-root-tx_incluirc_hs5t9s1hmftoj-fill" data-item-order="0" transform="translate(212, 374)"><g id="tx_incluirc_hs5t9s1hmftoj-fill-merged" stroke="none" fill="#f4f4f4" fill-opacity="1"><g><text style="font: 15px Roboto, sans-serif; white-space: pre;" transform="translate(82, 46)" font-size="15px" font-family="Roboto, sans-serif"><tspan x="-37.79" y="-18.4" dominant-baseline="ideographic">Incluir CSS </tspan><tspan x="-51.94" y="-0.4" dominant-baseline="ideographic">directamente o </tspan><tspan x="-68.3" y="17.6" dominant-baseline="ideographic">enlazar a un archivo </tspan><tspan x="-26.8" y="35.6" dominant-baseline="ideographic">externo</tspan></text></g></g></g><g id="g-root-tx_identifi_1umstps1hmfsp9-fill" data-item-order="0" transform="translate(374, 374)"><g id="tx_identifi_1umstps1hmfsp9-fill-merged" stroke="none" fill="#f4f4f4" fill-opacity="1"><g><text style="font: 15px Roboto, sans-serif; white-space: pre;" transform="translate(82, 46)" font-size="15px" font-family="Roboto, sans-serif"><tspan x="-35.21" y="-18.4" dominant-baseline="ideographic">Identificar </tspan><tspan x="-64.94" y="-0.4" dominant-baseline="ideographic">elementos HTML a </tspan><tspan x="-68.17" y="17.6" dominant-baseline="ideographic">los que se aplicarán </tspan><tspan x="-35.77" y="35.6" dominant-baseline="ideographic">los estilos</tspan></text></g></g></g><g id="g-root-tx_especifi_1cw5ab41hmfrwn-fill" data-item-order="0" transform="translate(554, 362)"><g id="tx_especifi_1cw5ab41hmfrwn-fill-merged" stroke="none" fill="#f4f4f4" fill-opacity="1"><g><text style="font: 15px Roboto, sans-serif; white-space: pre;" transform="translate(70, 58)" font-size="15px" font-family="Roboto, sans-serif"><tspan x="-38.64" y="-27.4" dominant-baseline="ideographic">Especificar </tspan><tspan x="-48.64" y="-9.4" dominant-baseline="ideographic">propiedades y </tspan><tspan x="-54.4" y="8.6" dominant-baseline="ideographic">valores para los </tspan><tspan x="-36.88" y="26.6" dominant-baseline="ideographic">elementos </tspan><tspan x="-50.08" y="44.6" dominant-baseline="ideographic">seleccionados</tspan></text></g></g></g><g id="g-root-tx_pginaweb_zkorxs1hmfthl-fill" data-item-order="0" transform="translate(722, 380)"><g id="tx_pginaweb_zkorxs1hmfthl-fill-merged" stroke="none" fill="#f4f4f4" fill-opacity="1"><g><text style="font: 15px Roboto, sans-serif; white-space: pre;" transform="translate(70, 40)" font-size="15px" font-family="Roboto, sans-serif"><tspan x="-38.71" y="-9.4" dominant-baseline="ideographic">Página web </tspan><tspan x="-40.49" y="8.6" dominant-baseline="ideographic">visualmente </tspan><tspan x="-52.44" y="26.6" dominant-baseline="ideographic">atractiva y clara</tspan></text></g></g></g><g id="g-root-tf_1414nzk1hmv8jn-stroke" data-item-order="-738720"></g><g id="g-root-cp_1_container_959g8g1hmedqi-stroke" data-item-order="-383604" transform="translate(52, 129)"><g id="cp_1_container_959g8g1hmedqi-stroke" fill="none" stroke-linecap="round" stroke-linejoin="round" stroke-miterlimit="4" stroke="#ffe711" stroke-width="2" stroke-opacity="1"><g><path d="M 125.5 95.5L 76 141L 73.5 140.9057M 125.5 95.5L 122 66M 125.5 95.5L 108 96.5M 122 66L 88 80.5M 122 66L 108 96.5M 88 80.5L 95 52M 88 80.5L 71 140.8113M 88 80.5L 108 96.5M 95 52L 64 10M 95 52L 62 65M 64 10L 35.5 57M 64 10L 62 65M 35.5 57L 42 82.5M 35.5 57L 62 65M 42 82.5L 13.5 73.5M 42 82.5L 26 100.5M 42 82.5L 56 140.2453M 13.5 73.5L 10 100.5M 13.5 73.5L 26 100.5M 10 100.5L 49.5 140L 53 140.1321M 10 100.5L 26 100.5M 26 100.5L 53 140.1321M 53 140.1321L 56 140.2453M 64.5 140.566L 62 65M 64.5 140.566L 56 140.2453M 64.5 140.566L 71 140.8113M 71 140.8113L 73.5 140.9057M 108 96.5L 73.5 140.9057"></path></g></g></g><g id="g-root-cp_2_container_1_4pfy401hmeeir-stroke" data-item-order="-383596" transform="translate(218, 133)"><g id="cp_2_container_1_4pfy401hmeeir-stroke" fill="none" stroke-linecap="round" stroke-linejoin="round" stroke-miterlimit="4" stroke="#f79438" stroke-width="2" stroke-opacity="1"><g><path d="M 10 73.5L 70 10M 10 73.5L 70 132M 10 73.5L 88.5 87M 70 10L 130.5 67M 70 10L 88.5 87M 130.5 67L 70 132M 130.5 67L 88.5 87M 70 132L 88.5 87"></path></g></g></g><g id="g-root-cp_3_container_2_1uuwzu81hmef4c-stroke" data-item-order="-383588" transform="translate(399, 132)"><g id="cp_3_container_2_1uuwzu81hmef4c-stroke" fill="none" stroke-linecap="round" stroke-linejoin="round" stroke-miterlimit="4" stroke="#fb6762" stroke-width="2" stroke-opacity="1"><g><path d="M 10 85.5L 57.5 134.5M 10 85.5L 18.5 74.5M 10 85.5L 71 95.5M 57.5 134.5L 104.5 80.5M 57.5 134.5L 71 95.5M 104.5 80.5L 96 70.5M 104.5 80.5L 71 95.5M 96 70.5L 45.5 64L 18.5 74.5M 96 70.5L 67 81.5M 18.5 74.5L 67 81.5M 71 95.5L 67 81.5M 71 60L 21 53L 60 10M 71 60L 102 49L 60 10M 71 60L 60 10"></path></g></g></g><g id="g-root-cp_4_container_3_1uuwzu81hmef4d-stroke" data-item-order="-383580" transform="translate(566, 152)"><g id="cp_4_container_3_1uuwzu81hmef4d-stroke" fill="none" stroke-linecap="round" stroke-linejoin="round" stroke-miterlimit="4" stroke="#f366bb" stroke-width="2" stroke-opacity="1"><g><path d="M 10.6402 36.3415L 57.5878 94.2927L 105.1966 36.3415M 10.6402 36.3415C 9.3177 33.4878 9.3177 29.0976 17.9137 19.2195M 10.6402 36.3415C 38.412 50.8293 91.9719 46.2195 105.1966 36.3415M 105.1966 36.3415C 106.9599 34.8049 106.519 29.0976 96.6006 19.2195M 96.6006 19.2195C 95.2781 22.5122 85.6241 29.0976 57.5878 29.0976C 29.5515 29.0976 19.4566 22.5122 17.9137 19.2195M 96.6006 19.2195C 93.2944 15.9268 84.5661 10 57.5878 10C 30.6094 10 20.7791 15.9268 17.9137 19.2195"></path></g></g></g><g id="g-root-cp_5_container_4_1q5qdf41hmfrba-stroke" data-item-order="-383572" transform="translate(734, 151)"><g id="cp_5_container_4_1q5qdf41hmfrba-stroke" fill="none" stroke-linecap="round" stroke-linejoin="round" stroke-miterlimit="4" stroke="#cb68f9" stroke-width="2" stroke-opacity="1"><g><path d="M 10.6402 36.7073L 57.5878 95.4634M 10.6402 36.7073C 12.3209 37.5963 16.0588 39.2955 17.9137 40.0457M 10.6402 36.7073C 10.1555 35.6469 9.8485 34.3773 10.0771 32.7012M 57.5878 95.4634L 105.1966 36.7073M 57.5878 95.4634L 41.7392 57.4055M 57.5878 95.4634L 73.4784 57.4055M 105.1966 36.7073C 104.0589 37.5689 99.6367 39.2721 97.9441 40.0457M 105.1966 36.7073C 105.9145 36.073 106.2671 34.7376 105.7632 32.7012M 96.6006 19.3476C 93.2944 16.0091 84.5661 10 57.5878 10C 30.6094 10 20.7791 16.0091 17.9137 19.3476M 96.6006 19.3476C 96.2421 20.2526 95.2713 21.4029 93.488 22.599M 96.6006 19.3476C 102.4806 25.285 105.0297 29.7362 105.7632 32.7012M 17.9137 19.3476C 18.332 20.2526 19.3787 21.4029 21.241 22.599M 17.9137 19.3476C 12.4681 25.6923 10.4723 29.804 10.0771 32.7012M 41.7392 57.4055L 25.8696 42.0488M 41.7392 57.4055L 55.6251 45.8252M 25.8696 42.0488C 31.4208 43.0824 49.7956 45.5108 55.6251 45.8252M 25.8696 42.0488C 33.1432 40.7134 42.0217 31.0989 41.7392 28.5178M 25.8696 42.0488C 23.2247 41.5563 19.9185 40.8565 17.9137 40.0457M 55.6251 45.8252C 56.9476 45.8965 58.9313 46.0549 60.2537 45.8252M 55.6251 45.8252C 49.674 44.0372 42.4004 33.0975 41.7392 28.5178M 73.4784 57.4055L 87.3643 43.3841M 73.4784 57.4055L 60.2537 45.8252M 87.3643 43.3841C 81.7006 44.3434 66.8087 45.5577 60.2537 45.8252M 87.3643 43.3841C 81.0165 40.7017 74.1397 32.5654 73.4784 28.5061M 87.3643 43.3841C 89.7407 42.9817 95.2991 41.3811 97.9441 40.0457M 60.2537 45.8252C 64.2212 44.7195 72.4204 35.8329 73.4784 28.5061M 73.4784 28.5061C 68.994 29.0421 63.7324 29.3628 57.5878 29.3628C 51.4878 29.3628 46.2372 29.0467 41.7392 28.5178M 73.4784 28.5061C 83.9087 27.2595 90.1348 24.8483 93.488 22.599M 41.7392 28.5178C 31.1679 27.2745 24.7536 24.8553 21.241 22.599M 17.9137 40.0457C 16.8117 37.6948 14.3641 30.2093 21.241 22.599M 21.241 22.599C 18.2066 26.189 11.7257 33.2354 10.0771 32.7012M 93.488 22.599C 96.964 25.1564 100.3329 32.9311 97.9441 40.0457M 93.488 22.599C 95.9983 25.0762 101.9678 30.5646 105.7632 32.7012"></path></g></g></g><g id="g-root-tx_aplicaci_1ha3d681hmfs3z-stroke" data-item-order="0" transform="translate(296, 38)"></g><g id="g-root-tx_implemen_m7zbe81hmfswa-stroke" data-item-order="0" transform="translate(206, 314)"></g><g id="g-root-tx_seleccin_4hbrzk1hmfs3o-stroke" data-item-order="0" transform="translate(380, 314)"></g><g id="g-root-tx_definici_1q6zblc1hmfthi-stroke" data-item-order="0" transform="translate(548, 302)"></g><g id="g-root-tx_htmlsine_18egcxc1hmftog-stroke" data-item-order="0" transform="translate(38, 344)"></g><g id="g-root-tx_htmlcone_18gbs6o1hmfsow-stroke" data-item-order="0" transform="translate(728, 320)"></g><g id="g-root-tx_pginaweb_v3mbn41hmfs3l-stroke" data-item-order="0" transform="translate(38, 380)"></g><g id="g-root-tx_incluirc_hs5t9s1hmftoj-stroke" data-item-order="0" transform="translate(212, 374)"></g><g id="g-root-tx_identifi_1umstps1hmfsp9-stroke" data-item-order="0" transform="translate(374, 374)"></g><g id="g-root-tx_especifi_1cw5ab41hmfrwn-stroke" data-item-order="0" transform="translate(554, 362)"></g><g id="g-root-tx_pginaweb_zkorxs1hmfthl-stroke" data-item-order="0" transform="translate(722, 380)"></g></g></g></svg>