<?xml version="1.0" encoding="utf-8" standalone="yes"?>
<!DOCTYPE svg PUBLIC "-//W3C//DTD SVG 1.1//EN" "http://www.w3.org/Graphics/SVG/1.1/DTD/svg11.dtd">
<svg style="fill:none;stroke:none;fill-rule:evenodd;clip-rule:evenodd;stroke-linecap:round;stroke-linejoin:round;stroke-miterlimit:1.5;" version="1.1" xmlns="http://www.w3.org/2000/svg" xmlns:xlink="http://www.w3.org/1999/xlink" width="888" height="588" viewBox="0 0 888 588"><style class="text-font-style fontImports" data-font-family="Roboto">@import url(https://fonts.googleapis.com/css2?family=Roboto:wght@400;700&amp;amp;display=block);</style><rect id="" x="0" y="0" width="888" height="588" style="fill: #2c2c2c;"></rect><g id="items" style="isolation: isolate"><g id="blend" style="mix-blend-mode: normal"><g id="g-root-tf_zn6oa81iqqryc-fill" data-item-order="-783216"><g id="tf_zn6oa81iqqryc-fill-merged" stroke="none" fill="#2c2c2c" fill-opacity="1"><g><path d="M0 0 H888 V588 H0 V0"></path></g></g></g><g id="g-root-cp_2_g-2_18lbkvk1iqv0g0-fill" data-item-order="-413269" transform="translate(445.1669921875, 326.1669921875)"></g><g id="g-root-cp_3_g-3_zpokmo1iqv18p-fill" data-item-order="-413263" transform="translate(242.00100708007812, 326.1669921875)"></g><g id="g-root-cp_1_g-1_zpokmo1iqv18q-fill" data-item-order="-413257" transform="translate(445.1669921875, 123)"></g><g id="g-root-cp_4_g-4_v9v2i81iqv20z-fill" data-item-order="-413251" transform="translate(242.00100708007812, 123)"></g><g id="g-root-tx_componen_meujcg1iquznw-fill" data-item-order="0" transform="translate(170, 38)"><g id="tx_componen_meujcg1iquznw-fill-merged" stroke="none" fill="#f4f4f4" fill-opacity="1"><g><text style="font: bold 25px Roboto, sans-serif; white-space: pre;" transform="translate(274, 28)" font-weight="bold" font-size="25px" font-family="Roboto, sans-serif"><tspan x="-257.74" y="14.6" dominant-baseline="ideographic">Componentes de la Interacción Web Dinámica</tspan></text></g></g></g><g id="g-root-tx_implemen_qtf6gg1iql62p-fill" data-item-order="0" transform="translate(62, 122)"><g id="tx_implemen_qtf6gg1iql62p-fill-merged" stroke="none" fill="#ffe711" fill-opacity="1"><g><text style="font: 20px Roboto, sans-serif; white-space: pre;" transform="translate(166, 22)" font-size="20px" font-family="Roboto, sans-serif"><tspan x="-146.07" y="12" dominant-baseline="ideographic">Implementación</tspan></text></g></g></g><g id="g-root-tx_ejecucin_1ltnsz41iql6a5-fill" data-item-order="0" transform="translate(650, 122)"><g id="tx_ejecucin_1ltnsz41iql6a5-fill-merged" stroke="none" fill="#43dd93" fill-opacity="1"><g><text style="font: 20px Roboto, sans-serif; white-space: pre;" transform="translate(10, 34)" font-size="20px" font-family="Roboto, sans-serif"><tspan x="2" y="0" dominant-baseline="ideographic">Ejecución en el </tspan><tspan x="2" y="24" dominant-baseline="ideographic">Navegador</tspan></text></g></g></g><g id="g-root-tx_javascri_hxs67k1iql6ve-fill" data-item-order="0" transform="translate(38, 158)"><g id="tx_javascri_hxs67k1iql6ve-fill-merged" stroke="none" fill="#f4f4f4" fill-opacity="1"><g><text style="font: 15px Roboto, sans-serif; white-space: pre;" transform="translate(190, 70)" font-size="15px" font-family="Roboto, sans-serif"><tspan x="-136.66" y="-36.4" dominant-baseline="ideographic">JavaScript se puede </tspan><tspan x="-86.38" y="-18.4" dominant-baseline="ideographic">implementar </tspan><tspan x="-102.85" y="-0.4" dominant-baseline="ideographic">internamente o </tspan><tspan x="-172.14" y="17.6" dominant-baseline="ideographic">externamente, ofreciendo </tspan><tspan x="-109.5" y="35.6" dominant-baseline="ideographic">flexibilidad en la </tspan><tspan x="-80.46" y="53.6" dominant-baseline="ideographic">integración.</tspan></text></g></g></g><g id="g-root-ic_scri_14309kg1iqjrbf-fill" data-item-order="0" transform="translate(344, 224)"></g><g id="g-root-ic_1_8xrucw1iqh05c-fill" data-item-order="0" transform="translate(464, 224)"></g><g id="g-root-tx_javascri_14309kg1iql5hi-fill" data-item-order="0" transform="translate(650, 182)"><g id="tx_javascri_14309kg1iql5hi-fill-merged" stroke="none" fill="#f4f4f4" fill-opacity="1"><g><text style="font: 15px Roboto, sans-serif; white-space: pre;" transform="translate(10, 58)" font-size="15px" font-family="Roboto, sans-serif"><tspan x="2" y="-27.4" dominant-baseline="ideographic">JavaScript se ejecuta en </tspan><tspan x="2" y="-9.4" dominant-baseline="ideographic">el navegador del usuario, </tspan><tspan x="2" y="8.6" dominant-baseline="ideographic">proporcionando </tspan><tspan x="2" y="26.6" dominant-baseline="ideographic">interactividad en tiempo </tspan><tspan x="2" y="44.6" dominant-baseline="ideographic">real.</tspan></text></g></g></g><g id="g-root-ic_2_1cviwds1iqcs26-fill" data-item-order="0" transform="translate(344, 344)"></g><g id="g-root-ic_2_93e0z41iqv18t-fill" data-item-order="0" transform="translate(464, 344)"></g><g id="g-root-tx_mtodosfu_1d1565s1iql898-fill" data-item-order="0" transform="translate(74, 338)"><g id="tx_mtodosfu_1d1565s1iql898-fill-merged" stroke="none" fill="#1ac3fb" fill-opacity="1"><g><text style="font: 20px Roboto, sans-serif; white-space: pre;" transform="translate(154, 34)" font-size="20px" font-family="Roboto, sans-serif"><tspan x="-80.84" y="0" dominant-baseline="ideographic">Métodos </tspan><tspan x="-139.48" y="24" dominant-baseline="ideographic">Fundamentales</tspan></text></g></g></g><g id="g-root-tx_manipula_qrjr741iql72f-fill" data-item-order="0" transform="translate(650, 338)"><g id="tx_manipula_qrjr741iql72f-fill-merged" stroke="none" fill="#a6da37" fill-opacity="1"><g><text style="font: 20px Roboto, sans-serif; white-space: pre;" transform="translate(10, 34)" font-size="20px" font-family="Roboto, sans-serif"><tspan x="2" y="0" dominant-baseline="ideographic">Manipulación del </tspan><tspan x="2" y="24" dominant-baseline="ideographic">DOM</tspan></text></g></g></g><g id="g-root-tx_mtodosco_18ly54g1iql5vp-fill" data-item-order="0" transform="translate(14, 398)"><g id="tx_mtodosco_18ly54g1iql5vp-fill-merged" stroke="none" fill="#f4f4f4" fill-opacity="1"><g><text style="font: 15px Roboto, sans-serif; white-space: pre;" transform="translate(214, 58)" font-size="15px" font-family="Roboto, sans-serif"><tspan x="-102.96" y="-27.4" dominant-baseline="ideographic">Métodos como </tspan><tspan x="-197.71" y="-9.4" dominant-baseline="ideographic">`document.getElementById()` </tspan><tspan x="-178.57" y="8.6" dominant-baseline="ideographic">y `.innerHTML` permiten la </tspan><tspan x="-185.95" y="26.6" dominant-baseline="ideographic">manipulación de elementos </tspan><tspan x="-46.57" y="44.6" dominant-baseline="ideographic">HTML.</tspan></text></g></g></g><g id="g-root-tx_javascri_18k2pv41iql6vc-fill" data-item-order="0" transform="translate(650, 398)"><g id="tx_javascri_18k2pv41iql6vc-fill-merged" stroke="none" fill="#f4f4f4" fill-opacity="1"><g><text style="font: 15px Roboto, sans-serif; white-space: pre;" transform="translate(10, 58)" font-size="15px" font-family="Roboto, sans-serif"><tspan x="2" y="-27.4" dominant-baseline="ideographic">JavaScript interactúa con </tspan><tspan x="2" y="-9.4" dominant-baseline="ideographic">el HTML a través del DOM, </tspan><tspan x="2" y="8.6" dominant-baseline="ideographic">permitiendo </tspan><tspan x="2" y="26.6" dominant-baseline="ideographic">modificaciones y </tspan><tspan x="2" y="44.6" dominant-baseline="ideographic">actualizaciones.</tspan></text></g></g></g><g id="g-root-tf_zn6oa81iqqryc-stroke" data-item-order="-783216"></g><g id="g-root-cp_2_g-2_18lbkvk1iqv0g0-stroke" data-item-order="-413269" transform="translate(445.1669921875, 326.1669921875)"><g id="cp_2_g-2_18lbkvk1iqv0g0-stroke" fill="none" stroke-linecap="round" stroke-linejoin="round" stroke-miterlimit="4" stroke="#a6da37" stroke-width="2" stroke-opacity="1"><g><path d="M 10 38.5C 10 37.2145 10.0851 35.9489 10.25 34.7085C 12.1041 20.7608 24.0454 10 38.5 10L 133.5 10C 149.2401 10 162 22.7599 162 38.5C 162 54.2401 149.2401 67 133.5 67L 106.9636 67L 180.8905 140.9269C 191.9262 151.9625 191.9262 169.8549 180.8905 180.8905C 169.8549 191.9261 151.9626 191.9261 140.927 180.8905L 67 106.9635L 67 133.5C 67 149.2401 54.2401 162 38.5 162C 22.7599 162 10 149.2401 10 133.5L 10 38.5Z"></path></g></g></g><g id="g-root-cp_3_g-3_zpokmo1iqv18p-stroke" data-item-order="-413263" transform="translate(242.00100708007812, 326.1669921875)"><g id="cp_3_g-3_zpokmo1iqv18p-stroke" fill="none" stroke-linecap="round" stroke-linejoin="round" stroke-miterlimit="4" stroke="#1ac3fb" stroke-width="2" stroke-opacity="1"><g><path d="M 189.1673 38.5C 189.1673 37.2145 189.0822 35.9489 188.9173 34.7085C 187.0632 20.7608 175.1219 10 160.6673 10L 65.6673 10C 49.9272 10 37.1673 22.7599 37.1673 38.5C 37.1673 54.2401 49.9272 67 65.6673 67L 92.2036 67L 18.2767 140.9269C 7.2411 151.9625 7.2411 169.8549 18.2767 180.8905C 29.3123 191.9261 47.2046 191.9261 58.2402 180.8905L 132.1673 106.9635L 132.1673 133.5C 132.1673 149.2401 144.9272 162 160.6673 162C 176.4074 162 189.1673 149.2401 189.1673 133.5L 189.1673 38.5Z"></path></g></g></g><g id="g-root-cp_1_g-1_zpokmo1iqv18q-stroke" data-item-order="-413257" transform="translate(445.1669921875, 123)"><g id="cp_1_g-1_zpokmo1iqv18q-stroke" fill="none" stroke-linecap="round" stroke-linejoin="round" stroke-miterlimit="4" stroke="#43dd93" stroke-width="2" stroke-opacity="1"><g><path d="M 10 160.6672C 10 161.9527 10.0851 163.2183 10.25 164.4587C 12.1041 178.4064 24.0454 189.1672 38.5 189.1672L 133.5 189.1672C 149.2401 189.1672 162 176.4073 162 160.6672C 162 144.9271 149.2401 132.1672 133.5 132.1672L 106.9636 132.1672L 180.8905 58.2403C 191.9262 47.2047 191.9262 29.3123 180.8905 18.2767C 169.8549 7.2411 151.9626 7.2411 140.927 18.2767L 67 92.2037L 67 65.6672C 67 49.9271 54.2401 37.1672 38.5 37.1672C 22.7599 37.1672 10 49.9271 10 65.6672L 10 160.6672Z"></path></g></g></g><g id="g-root-cp_4_g-4_v9v2i81iqv20z-stroke" data-item-order="-413251" transform="translate(242.00100708007812, 123)"><g id="cp_4_g-4_v9v2i81iqv20z-stroke" fill="none" stroke-linecap="round" stroke-linejoin="round" stroke-miterlimit="4" stroke="#ffe711" stroke-width="2" stroke-opacity="1"><g><path d="M 189.1673 160.6672C 189.1673 161.9527 189.0822 163.2183 188.9173 164.4587C 187.0632 178.4064 175.1219 189.1672 160.6673 189.1672L 65.6673 189.1672C 49.9272 189.1672 37.1673 176.4073 37.1673 160.6672C 37.1673 144.9271 49.9272 132.1672 65.6673 132.1672L 92.2036 132.1672L 18.2767 58.2403C 7.2411 47.2047 7.2411 29.3123 18.2767 18.2767C 29.3123 7.2411 47.2046 7.2411 58.2402 18.2767L 132.1673 92.2037L 132.1673 65.6672C 132.1673 49.9271 144.9272 37.1672 160.6673 37.1672C 176.4074 37.1672 189.1673 49.9271 189.1673 65.6672L 189.1673 160.6672Z"></path></g></g></g><g id="g-root-tx_componen_meujcg1iquznw-stroke" data-item-order="0" transform="translate(170, 38)"></g><g id="g-root-tx_implemen_qtf6gg1iql62p-stroke" data-item-order="0" transform="translate(62, 122)"></g><g id="g-root-tx_ejecucin_1ltnsz41iql6a5-stroke" data-item-order="0" transform="translate(650, 122)"></g><g id="g-root-tx_javascri_hxs67k1iql6ve-stroke" data-item-order="0" transform="translate(38, 158)"></g><g id="g-root-ic_scri_14309kg1iqjrbf-stroke" data-item-order="0" transform="translate(344, 224)"><g id="ic_scri_14309kg1iqjrbf-stroke" fill="none" stroke-linecap="round" stroke-linejoin="round" stroke-miterlimit="4" stroke="#ffe711" stroke-width="2" stroke-opacity="1"><g><path d="M 13.75 11.25L 66.25 11.25C 66.25 11.25 68.75 11.25 68.75 13.75L 68.75 66.25C 68.75 66.25 68.75 68.75 66.25 68.75L 13.75 68.75C 13.75 68.75 11.25 68.75 11.25 66.25L 11.25 13.75C 11.25 13.75 11.25 11.25 13.75 11.25M 48.75 55C 48.75 58.451782 51.548218 61.25 55 61.25C 58.451782 61.25 61.25 58.451782 61.25 55C 61.25 51.550003 58.75 50 55 48.75C 51.25 47.5 48.75 45.950001 48.75 42.5C 48.75 39.048222 51.548218 36.25 55 36.25C 58.451782 36.25 61.25 39.048222 61.25 42.5M 26.25 53.75C 26.250002 57.892136 29.607864 61.25 33.75 61.25C 37.892136 61.25 41.25 57.892136 41.25 53.75L 41.25 36.25"></path></g></g></g><g id="g-root-ic_1_8xrucw1iqh05c-stroke" data-item-order="0" transform="translate(464, 224)"><g id="ic_1_8xrucw1iqh05c-stroke" fill="none" stroke-linecap="round" stroke-linejoin="round" stroke-miterlimit="4" stroke="#43dd93" stroke-width="2" stroke-opacity="1"><g><path d="M 21.25 21.26L 58.75 21.26C 58.75 21.26 63.75 21.26 63.75 26.26L 63.75 53.759998C 63.75 53.759998 63.75 58.759998 58.75 58.759998L 21.25 58.759998C 21.25 58.759998 16.25 58.759998 16.25 53.759998L 16.25 26.26C 16.25 26.26 16.25 21.26 21.25 21.26M 16.25 31.259998L 63.75 31.259998M 23.75 25.635L 23.75 25.635M 23.75 25.635C 23.404823 25.635 23.125 25.914822 23.125 26.26C 23.125 26.605179 23.404823 26.885 23.75 26.885C 24.095177 26.885 24.375 26.605179 24.375 26.26C 24.375 25.914822 24.095177 25.635 23.75 25.635M 28.75 25.635L 28.75 25.635M 28.75 25.635C 28.404823 25.635 28.125 25.914822 28.125 26.26C 28.125 26.605179 28.404823 26.885 28.75 26.885C 29.095177 26.885 29.375 26.605179 29.375 26.26C 29.375 25.914822 29.095177 25.635 28.75 25.635M 33.75 25.635L 33.75 25.635M 33.75 25.635C 33.404823 25.635 33.125 25.914822 33.125 26.26C 33.125 26.605179 33.404823 26.885 33.75 26.885C 34.095177 26.885 34.375 26.605179 34.375 26.26C 34.375 25.914822 34.095177 25.635 33.75 25.635"></path></g></g></g><g id="g-root-tx_javascri_14309kg1iql5hi-stroke" data-item-order="0" transform="translate(650, 182)"></g><g id="g-root-ic_2_1cviwds1iqcs26-stroke" data-item-order="0" transform="translate(344, 344)"><g id="ic_2_1cviwds1iqcs26-stroke" fill="none" stroke-linecap="round" stroke-linejoin="round" stroke-miterlimit="4" stroke="#1ac3fb" stroke-width="2" stroke-opacity="1"><g><path d="M 33.825001 29.135C 32.945766 31.129608 31.479895 32.809128 29.622499 33.949997L 32.0975 46.849998L 24.362499 46.849998L 22.1675 35.377499C 17.76993 34.613029 14.304567 31.206573 13.464817 26.822756C 12.625067 22.438936 14.586248 17.992992 18.390001 15.6575L 19.922501 23.65L 24.362499 26.6625L 27.375 22.225L 25.842499 14.23C 29.09609 14.794346 31.908615 16.825363 33.467617 19.736349C 35.026623 22.647337 35.15844 26.114027 33.825001 29.134998ZM 51.314999 15.74C 50.567497 19.102501 46.612503 21.345001 41.192501 20.140001L 40.134998 24.8925L 65.485001 30.5275L 67.949997 19.4375L 51.314999 15.74ZM 46.27 46.849998L 50.630001 27.235001L 57.8475 28.84L 53.639999 46.852501L 46.27 46.852501ZM 68.125 63.325001L 68.125 46.849998L 11.875 46.849998L 11.875 63.325001C 11.875 64.675003 12.97 65.772499 14.32 65.772499L 65.68 65.772499C 67.029999 65.772499 68.125 64.675003 68.125 63.325001ZM 43.6675 50.52C 43.6675 52.545506 42.025505 54.187504 40 54.187504C 37.974495 54.187504 36.3325 52.545506 36.3325 50.52L 36.3325 46.852501L 43.6675 46.852501L 43.6675 50.52Z"></path></g></g></g><g id="g-root-ic_2_93e0z41iqv18t-stroke" data-item-order="0" transform="translate(464, 344)"><g id="ic_2_93e0z41iqv18t-stroke" fill="none" stroke-linecap="round" stroke-linejoin="round" stroke-miterlimit="4" stroke="#a6da37" stroke-width="2" stroke-opacity="1"><g><path d="M 48.125 21.25L 30.625 21.25L 35.625 11.25L 53.125 11.25L 48.125 21.25ZM 24.375 48.75L 13.125 42.5L 24.375 36.25L 35.625 42.5L 24.375 48.75ZM 24.375 48.75L 24.375 55M 17.5 61.875C 17.5 65.671959 20.578043 68.75 24.375 68.75C 28.171957 68.75 31.25 65.671959 31.25 61.875C 31.25 58.078045 28.171957 55 24.375 55C 20.578043 55 17.5 58.078045 17.5 61.875M 10 10M 55.625 48.75L 44.375 42.5L 55.625 36.25L 66.875 42.5L 55.625 48.75ZM 55.625 36.25L 55.625 33.75C 55.625 32.369286 54.505711 31.25 53.125 31.25L 26.875 31.25C 25.494287 31.25 24.375 32.369286 24.375 33.75L 24.375 36.25M 55.625 48.75L 55.625 55M 48.75 61.875C 48.750004 65.671959 51.828045 68.75 55.625 68.75C 59.421959 68.75 62.5 65.671959 62.5 61.875C 62.5 58.078045 59.421959 55 55.625 55C 51.828045 55 48.750004 58.078045 48.750004 61.875M 40.625 21.25L 40.625 31.25"></path></g></g></g><g id="g-root-tx_mtodosfu_1d1565s1iql898-stroke" data-item-order="0" transform="translate(74, 338)"></g><g id="g-root-tx_manipula_qrjr741iql72f-stroke" data-item-order="0" transform="translate(650, 338)"></g><g id="g-root-tx_mtodosco_18ly54g1iql5vp-stroke" data-item-order="0" transform="translate(14, 398)"></g><g id="g-root-tx_javascri_18k2pv41iql6vc-stroke" data-item-order="0" transform="translate(650, 398)"></g></g></g></svg>