<?xml version="1.0" encoding="utf-8" standalone="yes"?>
<!DOCTYPE svg PUBLIC "-//W3C//DTD SVG 1.1//EN" "http://www.w3.org/Graphics/SVG/1.1/DTD/svg11.dtd">
<svg style="fill:none;stroke:none;fill-rule:evenodd;clip-rule:evenodd;stroke-linecap:round;stroke-linejoin:round;stroke-miterlimit:1.5;" version="1.1" xmlns="http://www.w3.org/2000/svg" xmlns:xlink="http://www.w3.org/1999/xlink" width="648" height="564" viewBox="0 0 648 564"><style class="text-font-style fontImports" data-font-family="Roboto">@import url(https://fonts.googleapis.com/css2?family=Roboto:wght@400;700&amp;amp;display=block);</style><rect id="" x="0" y="0" width="648" height="564" style="fill: #2c2c2c;"></rect><g id="items" style="isolation: isolate"><g id="blend" style="mix-blend-mode: normal"><g id="g-root-tf_1lxf0401kyf5l3-fill" data-item-order="-548208"><g id="tf_1lxf0401kyf5l3-fill-merged" stroke="none" fill="#2c2c2c" fill-opacity="1"><g><path d="M0 0 H648 V564 H0 V0"></path></g></g></g><g id="g-root-cp_4_border-4_1unfqkw1kyjcp0-fill" data-item-order="-280789" transform="translate(85.99996948242188, 122)"></g><g id="g-root-cp_4_icon_1lrsqc01kyjdhp-fill" data-item-order="-280767" transform="translate(162.65234375, 122)"></g><g id="g-root-cp_3_border-3_1hclpao1kyjb46-fill" data-item-order="-280745" transform="translate(61.999969482421875, 218)"></g><g id="g-root-cp_3_icon_3_18gyp1s1kyjbwv-fill" data-item-order="-280723" transform="translate(138.65234375, 218)"></g><g id="g-root-cp_2_border-2_1cws7681kyjbwg-fill" data-item-order="-280701" transform="translate(38.000030517578125, 314)"></g><g id="g-root-cp_2_icon_6_14156xc1kyjcp5-fill" data-item-order="-280679" transform="translate(114.65234375, 314)"></g><g id="g-root-cp_1_border-1_zlbosw1kyjdhe-fill" data-item-order="-280657" transform="translate(14, 410)"></g><g id="g-root-cp_1_icon_9_qqb5n41kyjb4b-fill" data-item-order="-280637" transform="translate(110, 410)"></g><g id="g-root-tx_4_8z155c1kyjdhh-fill" data-item-order="0" transform="translate(122, 152)"><g id="tx_4_8z155c1kyjdhh-fill-merged" stroke="none" fill="#f4f4f4" fill-opacity="1"><g><text style="font: 30px Roboto, sans-serif; white-space: pre;" transform="translate(22, 28)" font-size="30px" font-family="Roboto, sans-serif"><tspan x="-8.43" y="18" dominant-baseline="ideographic">4</tspan></text></g></g></g><g id="g-root-tx_asegurar_1hgz0wg1kym58q-fill" data-item-order="0" transform="translate(302, 170)"><g id="tx_asegurar_1hgz0wg1kym58q-fill-merged" stroke="none" fill="#1ac3fb" fill-opacity="1"><g><text style="font: 15px Roboto, sans-serif; white-space: pre;" transform="translate(10, 28)" font-size="15px" font-family="Roboto, sans-serif"><tspan x="2" y="-0.4" dominant-baseline="ideographic">Asegurar que el contenido se muestre en </tspan><tspan x="2" y="17.6" dominant-baseline="ideographic">el navegador.</tspan></text></g></g></g><g id="g-root-tx_propsito_1urt26o1kym6tl-fill" data-item-order="0" transform="translate(302, 134)"><g id="tx_propsito_1urt26o1kym6tl-fill-merged" stroke="none" fill="#1ac3fb" fill-opacity="1"><g><text style="font: bold 20px Roboto, sans-serif; white-space: pre;" transform="translate(10, 22)" font-weight="bold" font-size="20px" font-family="Roboto, sans-serif"><tspan x="2" y="12" dominant-baseline="ideographic">Propósito de HTML</tspan></text></g></g></g><g id="g-root-ic_1_40lzk1kyjb4e-fill" data-item-order="0" transform="translate(206, 146)"></g><g id="g-root-ic_2_zqbhhs1kym4g4-fill" data-item-order="0" transform="translate(182, 242)"></g><g id="g-root-tx_rboljerr_1cw5q341kynk05-fill" data-item-order="0" transform="translate(278, 230)"><g id="tx_rboljerr_1cw5q341kynk05-fill-merged" stroke="none" fill="#a6da37" fill-opacity="1"><g><text style="font: bold 20px Roboto, sans-serif; white-space: pre;" transform="translate(10, 22)" font-weight="bold" font-size="20px" font-family="Roboto, sans-serif"><tspan x="2" y="12" dominant-baseline="ideographic">Árbol Jerárquico</tspan></text></g></g></g><g id="g-root-tx_3_145iij41kym6tn-fill" data-item-order="0" transform="translate(98, 248)"><g id="tx_3_145iij41kym6tn-fill-merged" stroke="none" fill="#f4f4f4" fill-opacity="1"><g><text style="font: 30px Roboto, sans-serif; white-space: pre;" transform="translate(22, 28)" font-size="30px" font-family="Roboto, sans-serif"><tspan x="-8.43" y="18" dominant-baseline="ideographic">3</tspan></text></g></g></g><g id="g-root-tx_formarun_zkp7ps1kynll2-fill" data-item-order="0" transform="translate(278, 266)"><g id="tx_formarun_zkp7ps1kynll2-fill-merged" stroke="none" fill="#a6da37" fill-opacity="1"><g><text style="font: 15px Roboto, sans-serif; white-space: pre;" transform="translate(10, 28)" font-size="15px" font-family="Roboto, sans-serif"><tspan x="2" y="-0.4" dominant-baseline="ideographic">Formar una estructura jerárquica para el </tspan><tspan x="2" y="17.6" dominant-baseline="ideographic">documento.</tspan></text></g></g></g><g id="g-root-tx_construy_mahnio1kyjbwk-fill" data-item-order="0" transform="translate(68, 38)"><g id="tx_construy_mahnio1kyjbwk-fill-merged" stroke="none" fill="#f4f4f4" fill-opacity="1"><g><text style="font: bold 25px Roboto, sans-serif; white-space: pre;" transform="translate(256, 28)" font-weight="bold" font-size="25px" font-family="Roboto, sans-serif"><tspan x="-243.17" y="14.6" dominant-baseline="ideographic">Construyendo la Estructura de un Sitio Web</tspan></text></g></g></g><g id="g-root-tx_organiza_1uqisls1l8eq6j-fill" data-item-order="0" transform="translate(230, 458)"><g id="tx_organiza_1uqisls1l8eq6j-fill-merged" stroke="none" fill="#4f91fc" fill-opacity="1"><g><text style="font: 15px Roboto, sans-serif; white-space: pre;" transform="translate(10, 28)" font-size="15px" font-family="Roboto, sans-serif"><tspan x="2" y="-0.4" dominant-baseline="ideographic">Organizar el contenido con etiquetas de apertura y </tspan><tspan x="2" y="17.6" dominant-baseline="ideographic">cierre.</tspan></text></g></g></g><g id="g-root-ic_2_1hd86ds1kynle0-fill" data-item-order="0" transform="translate(158, 338)"></g><g id="g-root-tx_atributo_1lxdopc1l86bd9-fill" data-item-order="0" transform="translate(254, 326)"><g id="tx_atributo_1lxdopc1l86bd9-fill-merged" stroke="none" fill="#43dd93" fill-opacity="1"><g><text style="font: bold 20px Roboto, sans-serif; white-space: pre;" transform="translate(10, 22)" font-weight="bold" font-size="20px" font-family="Roboto, sans-serif"><tspan x="2" y="12" dominant-baseline="ideographic">Atributos HTML</tspan></text></g></g></g><g id="g-root-tx_2_1lt1oi81kynklr-fill" data-item-order="0" transform="translate(74, 344)"><g id="tx_2_1lt1oi81kynklr-fill-merged" stroke="none" fill="#f4f4f4" fill-opacity="1"><g><text style="font: 30px Roboto, sans-serif; white-space: pre;" transform="translate(22, 28)" font-size="30px" font-family="Roboto, sans-serif"><tspan x="-8.43" y="18" dominant-baseline="ideographic">2</tspan></text></g></g></g><g id="g-root-tx_proporci_146q5ao1l86akm-fill" data-item-order="0" transform="translate(254, 362)"><g id="tx_proporci_146q5ao1l86akm-fill-merged" stroke="none" fill="#43dd93" fill-opacity="1"><g><text style="font: 15px Roboto, sans-serif; white-space: pre;" transform="translate(10, 28)" font-size="15px" font-family="Roboto, sans-serif"><tspan x="2" y="-0.4" dominant-baseline="ideographic">Proporcionar información adicional sobre los </tspan><tspan x="2" y="17.6" dominant-baseline="ideographic">elementos.</tspan></text></g></g></g><g id="g-root-ic_crea_dkfln41l86ako-fill" data-item-order="0" transform="translate(134, 434)"></g><g id="g-root-tx_elemento_4l1qvk1l8epky-fill" data-item-order="0" transform="translate(230, 422)"><g id="tx_elemento_4l1qvk1l8epky-fill-merged" stroke="none" fill="#4f91fc" fill-opacity="1"><g><text style="font: bold 20px Roboto, sans-serif; white-space: pre;" transform="translate(10, 22)" font-weight="bold" font-size="20px" font-family="Roboto, sans-serif"><tspan x="2" y="12" dominant-baseline="ideographic">Elementos HTML</tspan></text></g></g></g><g id="g-root-tx_1_i093rk1l869sf-fill" data-item-order="0" transform="translate(50, 440)"><g id="tx_1_i093rk1l869sf-fill-merged" stroke="none" fill="#f4f4f4" fill-opacity="1"><g><text style="font: 30px Roboto, sans-serif; white-space: pre;" transform="translate(22, 28)" font-size="30px" font-family="Roboto, sans-serif"><tspan x="-8.43" y="18" dominant-baseline="ideographic">1</tspan></text></g></g></g><g id="g-root-tf_1lxf0401kyf5l3-stroke" data-item-order="-548208"></g><g id="g-root-cp_4_border-4_1unfqkw1kyjcp0-stroke" data-item-order="-280789" transform="translate(85.99996948242188, 122)"><g id="cp_4_border-4_1unfqkw1kyjcp0-stroke" fill="none" stroke-linecap="round" stroke-linejoin="round" stroke-miterlimit="4" stroke="#1ac3fb" stroke-width="2" stroke-opacity="1"><g><path d="M 10.000031 57C 10.000031 31.0426 31.042631 10 57.000031 10L 206.500031 10M 10.000031 56.980469L 10.000031 58.999969M 10.000031 59C 10.000031 84.9576 31.000031 106.0004 57.000031 106.0004L 86.500031 106.0004M 207.000031 106.0004L 183.000031 106.0004M 206.642938 10L 538.000338 10L 538.000338 106L 206.643138 106"></path></g></g></g><g id="g-root-cp_4_icon_1lrsqc01kyjdhp-stroke" data-item-order="-280767" transform="translate(162.65234375, 122)"><g id="cp_4_icon_1lrsqc01kyjdhp-stroke" fill="none" stroke-linecap="round" stroke-linejoin="round" stroke-miterlimit="4" stroke="#1ac3fb" stroke-width="2" stroke-opacity="1"><g><path d="M 29.347656 23.4164C 29.347656 18.4588 31.036556 13.7576 33.989656 10M 129.989656 10C 127.036556 13.7576 125.347656 18.4587 125.347656 23.4164M 125.347656 23L 125.347656 83M 29.347656 83L 29.347656 23M 125.3474 82.871094C 125.3474 90.341794 120.7018 97.170994 113.3474 100.511994C 110.4109 101.845994 107.9063 103.736094 105.9568 106.001194M 29.3474 82.871094C 29.3474 90.341794 24.7018 97.170994 17.3474 100.511994C 14.4326 101.836194 11.9432 103.708294 10 105.951194"></path></g></g></g><g id="g-root-cp_3_border-3_1hclpao1kyjb46-stroke" data-item-order="-280745" transform="translate(61.999969482421875, 218)"><g id="cp_3_border-3_1hclpao1kyjb46-stroke" fill="none" stroke-linecap="round" stroke-linejoin="round" stroke-miterlimit="4" stroke="#a6da37" stroke-width="2" stroke-opacity="1"><g><path d="M 10.000031 57C 10.000031 31.0426 31.042631 10 57.000031 10L 110.500031 10M 10.000031 56.980469L 10.000031 58.999969M 10.000031 59C 10.000031 84.9576 31.000031 106.0004 57.000031 106.0004L 86.500031 106.0004M 207.000031 106.0004L 183.000031 106.0004M 206.642938 10L 562.000338 10L 562.000338 106L 206.643138 106"></path></g></g></g><g id="g-root-cp_3_icon_3_18gyp1s1kyjbwv-stroke" data-item-order="-280723" transform="translate(138.65234375, 218)"><g id="cp_3_icon_3_18gyp1s1kyjbwv-stroke" fill="none" stroke-linecap="round" stroke-linejoin="round" stroke-miterlimit="4" stroke="#a6da37" stroke-width="2" stroke-opacity="1"><g><path d="M 29.347656 23.4164C 29.347656 18.4588 31.036556 13.7576 33.989656 10M 129.989656 10C 127.036556 13.7576 125.347656 18.4587 125.347656 23.4164M 125.347656 23L 125.347656 83M 29.347656 83L 29.347656 23M 125.3474 82.871094C 125.3474 90.341794 120.7018 97.170994 113.3474 100.511994C 110.4109 101.845994 107.9063 103.736094 105.9568 106.001194M 29.3474 82.871094C 29.3474 90.341794 24.7018 97.170994 17.3474 100.511994C 14.4326 101.836194 11.9432 103.708294 10 105.951194"></path></g></g></g><g id="g-root-cp_2_border-2_1cws7681kyjbwg-stroke" data-item-order="-280701" transform="translate(38.000030517578125, 314)"><g id="cp_2_border-2_1cws7681kyjbwg-stroke" fill="none" stroke-linecap="round" stroke-linejoin="round" stroke-miterlimit="4" stroke="#43dd93" stroke-width="2" stroke-opacity="1"><g><path d="M 9.999969 57C 9.999969 31.0426 31.042569 10 56.999969 10L 110.499969 10M 9.999969 56.980469L 9.999969 58.999969M 9.999969 59C 9.999969 84.9576 30.999969 106.0004 56.999969 106.0004L 86.499969 106.0004M 206.999969 106.0004L 182.999969 106.0004M 206.642976 10L 586.000176 10L 586.000176 106L 206.643176 106"></path></g></g></g><g id="g-root-cp_2_icon_6_14156xc1kyjcp5-stroke" data-item-order="-280679" transform="translate(114.65234375, 314)"><g id="cp_2_icon_6_14156xc1kyjcp5-stroke" fill="none" stroke-linecap="round" stroke-linejoin="round" stroke-miterlimit="4" stroke="#43dd93" stroke-width="2" stroke-opacity="1"><g><path d="M 29.347656 23.4164C 29.347656 18.4588 31.036556 13.7576 33.989656 10M 129.989656 10C 127.036556 13.7576 125.347656 18.4587 125.347656 23.4164M 125.347656 23L 125.347656 83M 29.347656 83L 29.347656 23M 125.3474 82.871094C 125.3474 90.341794 120.7018 97.170994 113.3474 100.511994C 110.4109 101.845994 107.9063 103.736094 105.9568 106.001194M 29.3474 82.871094C 29.3474 90.341794 24.7018 97.170994 17.3474 100.511994C 14.4326 101.836194 11.9432 103.708294 10 105.951194"></path></g></g></g><g id="g-root-cp_1_border-1_zlbosw1kyjdhe-stroke" data-item-order="-280657" transform="translate(14, 410)"><g id="cp_1_border-1_zlbosw1kyjdhe-stroke" fill="none" stroke-linecap="round" stroke-linejoin="round" stroke-miterlimit="4" stroke="#4f91fc" stroke-width="2" stroke-opacity="1"><g><path d="M 10 57C 10 31.0426 31.0426 10 57 10L 110.5 10M 609.999878 57L 609.999878 10L 206.642578 10M 10 56.980469L 10 58.999969M 610 56.980469L 610 58.999969M 10 59C 10 84.9576 30.2334 106.0004 55.1926 106.0004L 564.8073 106.0004C 589.7666 106.0004 610 84.9576 610 59"></path></g></g></g><g id="g-root-cp_1_icon_9_qqb5n41kyjb4b-stroke" data-item-order="-280637" transform="translate(110, 410)"><g id="cp_1_icon_9_qqb5n41kyjb4b-stroke" fill="none" stroke-linecap="round" stroke-linejoin="round" stroke-miterlimit="4" stroke="#4f91fc" stroke-width="2" stroke-opacity="1"><g><path d="M 10 23.4164C 10 18.4588 11.6889 13.7576 14.642 10M 110.642 10C 107.6889 13.7576 106 18.4587 106 23.4164M 106 23L 106 60M 10 60L 10 23M 10 59.75C 10 85.2927 30.7065 105.9992 56.2492 105.9992L 59.7508 105.9992C 85.2935 105.9992 106 85.2927 106 59.75"></path></g></g></g><g id="g-root-tx_4_8z155c1kyjdhh-stroke" data-item-order="0" transform="translate(122, 152)"></g><g id="g-root-tx_asegurar_1hgz0wg1kym58q-stroke" data-item-order="0" transform="translate(302, 170)"></g><g id="g-root-tx_propsito_1urt26o1kym6tl-stroke" data-item-order="0" transform="translate(302, 134)"></g><g id="g-root-ic_1_40lzk1kyjb4e-stroke" data-item-order="0" transform="translate(206, 146)"><g id="ic_1_40lzk1kyjb4e-stroke" fill="none" stroke-linecap="round" stroke-linejoin="round" stroke-miterlimit="4" stroke="#1ac3fb" stroke-width="2" stroke-opacity="1"><g><path d="M 21 33.007999L 21 49.007999M 13 49.007999L 13 33.007999M 13 41.007999L 21 41.007999M 37 49.007999L 37 33.007999L 41 41.007999L 45 33.007999L 45 49.007999M 49 33L 49 46C 49 47.656857 50.343147 49 52 49L 57 49M 25 33.007999L 33 33.007999M 29 33.007999L 29 49.007999M 57 55C 57 56.104568 56.104568 57 55 57L 13 57C 11.895431 57 11 56.104568 11 55M 11 27L 11 13C 11 11.895431 11.895431 11 13 11L 55 11C 56.104568 11 57 11.895431 57 13L 57 27"></path></g></g></g><g id="g-root-ic_2_zqbhhs1kym4g4-stroke" data-item-order="0" transform="translate(182, 242)"><g id="ic_2_zqbhhs1kym4g4-stroke" fill="none" stroke-linecap="round" stroke-linejoin="round" stroke-miterlimit="4" stroke="#a6da37" stroke-width="2" stroke-opacity="1"><g><path d="M 40.5 19L 26.5 19L 30.5 11L 44.5 11L 40.5 19ZM 21.5 41L 12.5 36L 21.5 31L 30.5 36L 21.5 41ZM 21.5 41L 21.5 46M 16 51.5C 16 54.537567 18.462433 57 21.5 57C 24.537567 57 27 54.537567 27 51.5C 27 48.462437 24.537567 46 21.5 46C 18.462433 46 16 48.462437 16 51.5M 10 10M 46.5 41L 37.5 36L 46.5 31L 55.5 36L 46.5 41ZM 46.5 31L 46.5 29C 46.5 27.89543 45.604568 27 44.5 27L 23.5 27C 22.395432 27 21.5 27.89543 21.5 29L 21.5 31M 46.5 41L 46.5 46M 41 51.5C 41 54.537567 43.462437 57 46.5 57C 49.537567 57 52 54.537567 52 51.5C 52 48.462437 49.537567 46 46.5 46C 43.462437 46 41 48.462437 41 51.5M 34.5 19L 34.5 27"></path></g></g></g><g id="g-root-tx_rboljerr_1cw5q341kynk05-stroke" data-item-order="0" transform="translate(278, 230)"></g><g id="g-root-tx_3_145iij41kym6tn-stroke" data-item-order="0" transform="translate(98, 248)"></g><g id="g-root-tx_formarun_zkp7ps1kynll2-stroke" data-item-order="0" transform="translate(278, 266)"></g><g id="g-root-tx_construy_mahnio1kyjbwk-stroke" data-item-order="0" transform="translate(68, 38)"></g><g id="g-root-tx_organiza_1uqisls1l8eq6j-stroke" data-item-order="0" transform="translate(230, 458)"></g><g id="g-root-ic_2_1hd86ds1kynle0-stroke" data-item-order="0" transform="translate(158, 338)"><g id="ic_2_1hd86ds1kynle0-stroke" fill="none" stroke-linecap="round" stroke-linejoin="round" stroke-miterlimit="4" stroke="#43dd93" stroke-width="2" stroke-opacity="1"><g><path d="M 29.059999 25.307999C 28.356613 26.903687 27.183916 28.247301 25.697998 29.159998L 27.677999 39.48L 21.49 39.48L 19.734001 30.302C 16.215942 29.690422 13.443654 26.96526 12.771853 23.458204C 12.100054 19.951149 13.668999 16.394394 16.712 14.526L 17.938 20.92L 21.49 23.33L 23.9 19.779999L 22.674 13.384C 25.276871 13.835477 27.526892 15.460291 28.774094 17.78908C 30.021297 20.11787 30.126753 22.891222 29.059999 25.307999ZM 43.051998 14.592C 42.453999 17.282 39.290001 19.076 34.954002 18.112L 34.108002 21.914L 54.388 26.422001L 56.360001 17.549999L 43.051998 14.592ZM 39.015999 39.48L 42.504002 23.788L 48.278 25.071999L 44.911999 39.482002L 39.015999 39.482002ZM 56.5 52.66L 56.5 39.48L 11.5 39.48L 11.5 52.66C 11.5 53.740002 12.375999 54.618 13.456 54.618L 54.543999 54.618C 55.624001 54.618 56.5 53.740002 56.5 52.66ZM 36.933998 42.416C 36.933998 44.036404 35.620403 45.350002 34 45.350002C 32.379597 45.350002 31.066 44.036404 31.066 42.416L 31.066 39.482002L 36.933998 39.482002L 36.933998 42.416Z"></path></g></g></g><g id="g-root-tx_atributo_1lxdopc1l86bd9-stroke" data-item-order="0" transform="translate(254, 326)"></g><g id="g-root-tx_2_1lt1oi81kynklr-stroke" data-item-order="0" transform="translate(74, 344)"></g><g id="g-root-tx_proporci_146q5ao1l86akm-stroke" data-item-order="0" transform="translate(254, 362)"></g><g id="g-root-ic_crea_dkfln41l86ako-stroke" data-item-order="0" transform="translate(134, 434)"><g id="ic_crea_dkfln41l86ako-stroke" fill="none" stroke-linecap="round" stroke-linejoin="round" stroke-miterlimit="4" stroke="#4f91fc" stroke-width="2" stroke-opacity="1"><g><path d="M 39 30.799999L 32 32.799999L 34 25.799999L 48.292 11.498C 48.479607 11.309916 48.734344 11.204212 49 11.204212C 49.265656 11.204212 49.520393 11.309916 49.708 11.498L 53.292 15.084C 53.682381 15.4745 53.682381 16.1075 53.292 16.498001ZM 45 14.792L 50 19.792M 33.996002 25.793999L 38.996002 30.794001M 54 20.799999L 56 20.799999C 56.552284 20.799999 57 21.247715 57 21.799999L 57 55.799999C 57 56.352283 56.552284 56.799999 56 56.799999L 12 56.799999C 11.447716 56.799999 11 56.352283 11 55.799999L 11 21.799999C 11 21.247715 11.447716 20.799999 12 20.799999L 34 20.799999M 26 26.799999L 18 26.799999C 17.447716 26.799999 17 27.247715 17 27.799999L 17 49.799999C 17 50.352283 17.447716 50.799999 18 50.799999L 35 50.799999L 35 43.799999C 35 43.247715 35.447716 42.799999 36 42.799999L 44 42.799999C 44.552284 42.799999 45 43.247715 45 43.799999L 45 50.799999L 50 50.799999C 50.552284 50.799999 51 50.352283 51 49.799999L 51 27.799999M 35 46.793999L 45 46.793999M 35 50.793999L 45 50.793999M 17 36.793999L 26 36.793999M 42 38.793999L 51 38.793999M 42 34.793999L 51 34.793999M 17 42.799999L 24 42.799999C 24.552284 42.799999 25 43.247715 25 43.799999L 25 50.799999"></path></g></g></g><g id="g-root-tx_elemento_4l1qvk1l8epky-stroke" data-item-order="0" transform="translate(230, 422)"></g><g id="g-root-tx_1_i093rk1l869sf-stroke" data-item-order="0" transform="translate(50, 440)"></g></g></g></svg>