<?xml version="1.0" encoding="utf-8" standalone="yes"?>
<!DOCTYPE svg PUBLIC "-//W3C//DTD SVG 1.1//EN" "http://www.w3.org/Graphics/SVG/1.1/DTD/svg11.dtd">
<svg style="fill:none;stroke:none;fill-rule:evenodd;clip-rule:evenodd;stroke-linecap:round;stroke-linejoin:round;stroke-miterlimit:1.5;" version="1.1" xmlns="http://www.w3.org/2000/svg" xmlns:xlink="http://www.w3.org/1999/xlink" width="600" height="612" viewBox="0 0 600 612"><style class="text-font-style fontImports" data-font-family="Roboto">@import url(https://fonts.googleapis.com/css2?family=Roboto:wght@400;700&amp;amp;display=block);</style><rect id="" x="0" y="0" width="600" height="612" style="fill: #2c2c2c;"></rect><g id="items" style="isolation: isolate"><g id="blend" style="mix-blend-mode: normal"><g id="g-root-tf_1uonwcg1hcsvet-fill" data-item-order="-550800"><g id="tf_1uonwcg1hcsvet-fill-merged" stroke="none" fill="#2c2c2c" fill-opacity="1"><g><path d="M0 0 H600 V612 H0 V0"></path></g></g></g><g id="g-root-sy_4_cu_mg34w01hcvnyj-fill" data-item-order="-140153" transform="translate(170, 374.0087890625)"></g><g id="g-root-sy_3_cu_i09mrk1hcvoqs-fill" data-item-order="-140149" transform="translate(290, 158)"></g><g id="g-root-sy_1_cu_i09mrk1hcvoqt-fill" data-item-order="-140145" transform="translate(98, 158)"></g><g id="g-root-sy_7_cu_9593ls1hcvmdq-fill" data-item-order="-140141" transform="translate(170.8800048828125, 292.60498046875)"></g><g id="g-root-sy_6_cu_9593ls1hcvmdr-fill" data-item-order="-140137" transform="translate(290, 292.60498046875)"></g><g id="g-root-sy_2_cu_dl2lq81hcvmdc-fill" data-item-order="-140133" transform="translate(242, 181.9912109375)"></g><g id="g-root-sy_5_cu_4pflhc1hcvn61-fill" data-item-order="-140129" transform="translate(242.8800048828125, 283)"></g><g id="g-root-tx_elpoderd_dcbyio1hcx340-fill" data-item-order="0" transform="translate(14, 38)"><g id="tx_elpoderd_dcbyio1hcx340-fill-merged" stroke="none" fill="#f4f4f4" fill-opacity="1"><g><text style="font: bold 25px Roboto, sans-serif; white-space: pre;" transform="translate(286, 28)" font-weight="bold" font-size="25px" font-family="Roboto, sans-serif"><tspan x="-272.67" y="14.6" dominant-baseline="ideographic">El Poder de la Colaboración en el Desarrollo Web</tspan></text></g></g></g><g id="g-root-tx_diseoest_1lpwio01hcx0qr-fill" data-item-order="0" transform="translate(194, 122)"><g id="tx_diseoest_1lpwio01hcx0qr-fill-merged" stroke="none" fill="#e5f8ff" fill-opacity="1"><g><text style="font: 20px Roboto, sans-serif; white-space: pre;" transform="translate(106, 22)" font-size="20px" font-family="Roboto, sans-serif"><tspan x="-90.18" y="12" dominant-baseline="ideographic">Diseño Estructurado</tspan></text></g></g></g><g id="g-root-ic_foun_1uo1lkw1hcetc9-fill" data-item-order="0" transform="translate(158, 230)"></g><g id="g-root-ic_3_v3m5c01hcbzt3-fill" data-item-order="0" transform="translate(266, 218)"></g><g id="g-root-ic_brus_1czvvcw1hcu9sd-fill" data-item-order="0" transform="translate(374, 230)"></g><g id="g-root-tx_html_hs5gn41hcx2br-fill" data-item-order="0" transform="translate(26, 242)"><g id="tx_html_hs5gn41hcx2br-fill-merged" stroke="none" fill="#ebf2ff" fill-opacity="1"><g><text style="font: 20px Roboto, sans-serif; white-space: pre;" transform="translate(70, 22)" font-size="20px" font-family="Roboto, sans-serif"><tspan x="-56.16" y="12" dominant-baseline="ideographic">HTML</tspan></text></g></g></g><g id="g-root-tx_css_4pflhc1hcvn62-fill" data-item-order="0" transform="translate(494, 242)"><g id="tx_css_4pflhc1hcvn62-fill-merged" stroke="none" fill="#fff0e2" fill-opacity="1"><g><text style="font: 20px Roboto, sans-serif; white-space: pre;" transform="translate(10, 22)" font-size="20px" font-family="Roboto, sans-serif"><tspan x="2" y="12" dominant-baseline="ideographic">CSS</tspan></text></g></g></g><g id="g-root-ic_modu_1414hog1hcn6rz-fill" data-item-order="0" transform="translate(266, 296)"></g><g id="g-root-ic_door_143me0w1hcq1vn-fill" data-item-order="0" transform="translate(194, 338)"></g><g id="g-root-ic_expl_1414hog1hcj11p-fill" data-item-order="0" transform="translate(338, 338)"></g><g id="g-root-tx_contenid_1cu9if41hcx1jg-fill" data-item-order="0" transform="translate(62, 386)"><g id="tx_contenid_1cu9if41hcx1jg-fill-merged" stroke="none" fill="#f2ffd7" fill-opacity="1"><g><text style="font: 20px Roboto, sans-serif; white-space: pre;" transform="translate(106, 34)" font-size="20px" font-family="Roboto, sans-serif"><tspan x="-93.21" y="0" dominant-baseline="ideographic">Contenido </tspan><tspan x="-86.2" y="24" dominant-baseline="ideographic">Dinámico</tspan></text></g></g></g><g id="g-root-ic_cog_1hx8g1hcx1j5-fill" data-item-order="0" transform="translate(266, 422)"></g><g id="g-root-tx_interacc_zit01s1hcx34d-fill" data-item-order="0" transform="translate(422, 386)"><g id="tx_interacc_zit01s1hcx34d-fill-merged" stroke="none" fill="#fffbd5" fill-opacity="1"><g><text style="font: 20px Roboto, sans-serif; white-space: pre;" transform="translate(10, 34)" font-size="20px" font-family="Roboto, sans-serif"><tspan x="2" y="0" dominant-baseline="ideographic">Interacción </tspan><tspan x="2" y="24" dominant-baseline="ideographic">Visual</tspan></text></g></g></g><g id="g-root-tx_javascri_v3lz0g1hcx0qu-fill" data-item-order="0" transform="translate(236, 530)"><g id="tx_javascri_v3lz0g1hcx0qu-fill-merged" stroke="none" fill="#dffff0" fill-opacity="1"><g><text style="font: 20px Roboto, sans-serif; white-space: pre;" transform="translate(64, 22)" font-size="20px" font-family="Roboto, sans-serif"><tspan x="-46.97" y="12" dominant-baseline="ideographic">JavaScript</tspan></text></g></g></g><g id="g-root-tf_1uonwcg1hcsvet-stroke" data-item-order="-550800"></g><g id="g-root-sy_4_cu_mg34w01hcvnyj-stroke" data-item-order="-140153" transform="translate(170, 374.0087890625)"><g id="sy_4_cu_mg34w01hcvnyj-stroke" fill="none" stroke-linecap="round" stroke-linejoin="round" stroke-miterlimit="4" stroke="#f4f4f4" stroke-width="2" stroke-opacity="1"><g><path d="M 249.12 24.385997C 234.654 30.568997 218.727 33.990997 202 33.990997C 174.985 33.990997 150.056 25.063997 130 9.999997C 109.944 25.063997 85.015 33.990997 58 33.990997C 41.273 33.990997 25.346 30.568997 10.88 24.385997C 10.299 29.172997 10 34.046997 10 38.990997C 10 105.264997 63.726 158.990997 130 158.990997C 196.274 158.990997 250 105.264997 250 38.990997C 250 34.046997 249.701 29.172997 249.12 24.385997Z"></path></g></g></g><g id="g-root-sy_3_cu_i09mrk1hcvoqs-stroke" data-item-order="-140149" transform="translate(290, 158)"><g id="sy_3_cu_i09mrk1hcvoqs-stroke" fill="none" stroke-linecap="round" stroke-linejoin="round" stroke-miterlimit="4" stroke="#f4f4f4" stroke-width="2" stroke-opacity="1"><g><path d="M 57.12 144.605C 57.701 139.818 58 134.944 58 130C 58 90.74 39.147 55.884 10 33.991C 30.056 18.927 54.985 10 82 10C 148.274 10 202 63.726 202 130C 202 179.547 171.971 222.081 129.12 240.395C 123.88 197.206 95.696 161.091 57.12 144.605Z"></path></g></g></g><g id="g-root-sy_1_cu_i09mrk1hcvoqt-stroke" data-item-order="-140145" transform="translate(98, 158)"><g id="sy_1_cu_i09mrk1hcvoqt-stroke" fill="none" stroke-linecap="round" stroke-linejoin="round" stroke-miterlimit="4" stroke="#f4f4f4" stroke-width="2" stroke-opacity="1"><g><path d="M 154.88 144.605C 154.299 139.818 154 134.944 154 130C 154 90.74 172.853 55.884 202 33.991C 181.944 18.927 157.015 10 130 10C 63.726 10 10 63.726 10 130C 10 179.547 40.029 222.081 82.88 240.395C 88.12 197.206 116.304 161.091 154.88 144.605Z"></path></g></g></g><g id="g-root-sy_7_cu_9593ls1hcvmdq-stroke" data-item-order="-140141" transform="translate(170.8800048828125, 292.60498046875)"><g id="sy_7_cu_9593ls1hcvmdq-stroke" fill="none" stroke-linecap="round" stroke-linejoin="round" stroke-miterlimit="4" stroke="#f4f4f4" stroke-width="2" stroke-opacity="1"><g><path d="M 81.999995 9.999989C 43.423995 26.485989 15.239995 62.600989 9.999995 105.789989C 24.465995 111.972989 40.392995 115.394989 57.119995 115.394989C 84.134995 115.394989 109.063995 106.467989 129.119995 91.403989C 103.643995 72.267989 86.030995 43.227989 81.999995 9.999989Z"></path></g></g></g><g id="g-root-sy_6_cu_9593ls1hcvmdr-stroke" data-item-order="-140137" transform="translate(290, 292.60498046875)"><g id="sy_6_cu_9593ls1hcvmdr-stroke" fill="none" stroke-linecap="round" stroke-linejoin="round" stroke-miterlimit="4" stroke="#f4f4f4" stroke-width="2" stroke-opacity="1"><g><path d="M 57.12 9.999989C 53.089 43.227989 35.476 72.267989 10 91.403989C 30.056 106.467989 54.985 115.394989 82 115.394989C 98.727 115.394989 114.654 111.972989 129.12 105.789989C 123.88 62.600989 95.696 26.485989 57.12 9.999989Z"></path></g></g></g><g id="g-root-sy_2_cu_dl2lq81hcvmdc-stroke" data-item-order="-140133" transform="translate(242, 181.9912109375)"><g id="sy_2_cu_dl2lq81hcvmdc-stroke" fill="none" stroke-linecap="round" stroke-linejoin="round" stroke-miterlimit="4" stroke="#f4f4f4" stroke-width="2" stroke-opacity="1"><g><path d="M 105.12 120.614003C 105.701 115.827003 106 110.953003 106 106.009003C 106 66.749003 87.147 31.893003 58 10.000003C 28.853 31.893003 10 66.749003 10 106.009003C 10 110.953003 10.299 115.827003 10.88 120.614003C 25.346 114.431003 41.273 111.009003 58 111.009003C 74.727 111.009003 90.654 114.431003 105.12 120.614003Z"></path></g></g></g><g id="g-root-sy_5_cu_4pflhc1hcvn61-stroke" data-item-order="-140129" transform="translate(242.8800048828125, 283)"><g id="sy_5_cu_4pflhc1hcvn61-stroke" fill="none" stroke-linecap="round" stroke-linejoin="round" stroke-miterlimit="4" stroke="#a6da37" stroke-width="2" stroke-opacity="1"><g><path d="M 104.239995 19.605C 100.207995 52.833 82.595995 81.873 57.119995 101.009C 31.643995 81.873 14.030995 52.833 9.999995 19.605C 24.465995 13.422 40.392995 10 57.119995 10C 73.846995 10 89.773995 13.422 104.239995 19.605Z"></path></g></g></g><g id="g-root-tx_elpoderd_dcbyio1hcx340-stroke" data-item-order="0" transform="translate(14, 38)"></g><g id="g-root-tx_diseoest_1lpwio01hcx0qr-stroke" data-item-order="0" transform="translate(194, 122)"></g><g id="g-root-ic_foun_1uo1lkw1hcetc9-stroke" data-item-order="0" transform="translate(158, 230)"><g id="ic_foun_1uo1lkw1hcetc9-stroke" fill="none" stroke-linecap="round" stroke-linejoin="round" stroke-miterlimit="4" stroke="#4f91fc" stroke-width="2" stroke-opacity="1"><g><path d="M 11 11L 11 24L 20 24L 20 20L 48 20L 48 48L 44 48L 44 57L 57 57L 57 11L 11 11ZM 38 48L 20 48L 20 30L 11 30L 11 57L 38 57L 38 48Z"></path></g></g></g><g id="g-root-ic_3_v3m5c01hcbzt3-stroke" data-item-order="0" transform="translate(266, 218)"><g id="ic_3_v3m5c01hcbzt3-stroke" fill="none" stroke-linecap="round" stroke-linejoin="round" stroke-miterlimit="4" stroke="#1ac3fb" stroke-width="2" stroke-opacity="1"><g><path d="M 11.5 41.5L 11.5 24.5L 25.5 11.5L 39.5 24.5L 39.5 41.5M 11.5 41.5L 19.5 41.5L 19.5 46.5L 24.5 46.5L 24.5 51.5L 29.5 51.5L 29.5 56.5L 56.5 56.5L 56.5 41.5L 29.5 41.5M 39.5 24.5L 53.5 28M 50.5 27.25L 50.5 41.5M 28.834 26.5L 34.653999 26.5L 34.653999 32.32L 28.834 32.32Z"></path></g></g></g><g id="g-root-ic_brus_1czvvcw1hcu9sd-stroke" data-item-order="0" transform="translate(374, 230)"><g id="ic_brus_1czvvcw1hcu9sd-stroke" fill="none" stroke-linecap="round" stroke-linejoin="round" stroke-miterlimit="4" stroke="#f79438" stroke-width="2" stroke-opacity="1"><g><path d="M 15.2 38.299999L 11.2 51.82C 10.564628 53.951904 11.777929 56.195198 13.909891 56.830368C 16.041853 57.465538 18.285032 56.252026 18.92 54.120003L 22.92 40.599998C 26.907421 40.135857 30.230793 37.332253 31.360001 33.48L 31.6 32.66L 12.28 26.92L 12 27.74C 10.852387 31.583216 12.112103 35.740273 15.200001 38.300003M 36 18.18C 36.154655 17.668102 36.09787 17.115593 35.842331 16.645851C 35.586792 16.176111 35.153782 15.828268 34.639999 15.68L 19.1 11.08C 18.588104 10.925347 18.035591 10.98213 17.565851 11.237669C 17.096111 11.493208 16.748268 11.926217 16.6 12.440001L 12.28 26.92L 31.6 32.66ZM 13.440001 23.060001L 32.739998 28.799999M 22.959999 12.24L 20.939999 19M 30.68 14.52L 28.68 21.279999M 15.04 52.959999L 15.62 51.040001M 36.940002 29.799999C 39.252975 29.252544 41.623177 28.983967 44 29C 51.18 29 57 31.24 57 34C 57 36.760002 51.18 39 44 39C 40.871475 39.056175 37.757423 38.561989 34.799999 37.540001M 30.98 42L 30.98 52C 30.98 54.759998 36.799999 57 43.98 57C 51.16 57 56.98 54.759998 56.98 52L 56.98 34M 38.98 38.620003L 38.98 46C 38.98 47.104568 39.875431 48 40.98 48C 42.084568 48 42.98 47.104568 42.98 46C 42.98 44.895432 43.875431 44 44.98 44C 46.084568 44 46.98 44.895432 46.98 46C 46.98 47.656857 48.323147 49 49.98 49C 51.636856 49 52.98 47.656857 52.98 46L 52.98 37.599998"></path></g></g></g><g id="g-root-tx_html_hs5gn41hcx2br-stroke" data-item-order="0" transform="translate(26, 242)"></g><g id="g-root-tx_css_4pflhc1hcvn62-stroke" data-item-order="0" transform="translate(494, 242)"></g><g id="g-root-ic_modu_1414hog1hcn6rz-stroke" data-item-order="0" transform="translate(266, 296)"><g id="ic_modu_1414hog1hcn6rz-stroke" fill="none" stroke-linecap="round" stroke-linejoin="round" stroke-miterlimit="4" stroke="#a6da37" stroke-width="2" stroke-opacity="1"><g><path d="M 50.094002 49.007999L 56.094002 49.007999C 56.094002 49.007999 57.094002 49.007999 57.094002 50.007999L 57.094002 56.007999C 57.094002 56.007999 57.094002 57.007999 56.094002 57.007999L 50.094002 57.007999C 50.094002 57.007999 49.094002 57.007999 49.094002 56.007999L 49.094002 50.007999C 49.094002 50.007999 49.094002 49.007999 50.094002 49.007999M 38.094002 49.007999L 44.094002 49.007999C 44.094002 49.007999 45.094002 49.007999 45.094002 50.007999L 45.094002 56.007999C 45.094002 56.007999 45.094002 57.007999 44.094002 57.007999L 38.094002 57.007999C 38.094002 57.007999 37.094002 57.007999 37.094002 56.007999L 37.094002 50.007999C 37.094002 50.007999 37.094002 49.007999 38.094002 49.007999M 44.094002 37.007999L 50.094002 37.007999C 50.094002 37.007999 51.094002 37.007999 51.094002 38.007999L 51.094002 44.007999C 51.094002 44.007999 51.094002 45.007999 50.094002 45.007999L 44.094002 45.007999C 44.094002 45.007999 43.094002 45.007999 43.094002 44.007999L 43.094002 38.007999C 43.094002 38.007999 43.094002 37.007999 44.094002 37.007999M 11.094 19.007999L 51.094002 19.007999M 17.094 14.507999L 17.094 14.507999M 17.094 14.507999C 16.817858 14.507999 16.594 14.731857 16.594 15.007999C 16.594 15.284142 16.817858 15.507999 17.094 15.507999C 17.370142 15.507999 17.594 15.284142 17.594 15.007999C 17.594 14.731857 17.370142 14.507999 17.094 14.507999M 21.094 14.507999L 21.094 14.507999M 21.094 14.507999C 20.817858 14.507999 20.594 14.731857 20.594 15.007999C 20.594 15.284142 20.817858 15.507999 21.094 15.507999C 21.370142 15.507999 21.594 15.284142 21.594 15.007999C 21.594 14.731857 21.370142 14.507999 21.094 14.507999M 25.094 14.507999L 25.094 14.507999M 25.094 14.507999C 24.817858 14.507999 24.594 14.731857 24.594 15.007999C 24.594 15.284142 24.817858 15.507999 25.094 15.507999C 25.370142 15.507999 25.594 15.284142 25.594 15.007999C 25.594 14.731857 25.370142 14.507999 25.094 14.507999M 37.094002 43L 15.094 43C 12.884861 43 11.094 41.209137 11.094 39L 11.094 15C 11.094 12.790861 12.884861 11 15.094 11L 47.094002 11C 49.303139 11 51.094002 12.790861 51.094002 15L 51.094002 33"></path></g></g></g><g id="g-root-ic_door_143me0w1hcq1vn-stroke" data-item-order="0" transform="translate(194, 338)"><g id="ic_door_143me0w1hcq1vn-stroke" fill="none" stroke-linecap="round" stroke-linejoin="round" stroke-miterlimit="4" stroke="#a6da37" stroke-width="2" stroke-opacity="1"><g><path d="M 35 21L 45 21L 45 37L 35 37ZM 41.5 29C 41.776142 29 42 29.223858 42 29.5C 42 29.776142 41.776142 30 41.5 30C 41.223858 30 41 29.776142 41 29.5C 41 29.223858 41.223858 29 41.5 29M 57 27L 39 11L 21 27M 51 21.667999L 51 39C 51 40.104568 50.104568 41 49 41L 29 41C 27.89543 41 27 40.104568 27 39L 27 21.667999M 21 43L 21 55C 21 55 21 57 19 57L 13 57C 13 57 11 57 11 55L 11 43C 11 43 11 41 13 41L 19 41C 19 41 21 41 21 43M 18.675999 36.028C 17.154737 34.658733 14.845263 34.658733 13.323999 36.028M 21 32.756001C 18.077337 30.415997 13.922663 30.415997 11 32.756001M 16 52C 16.276142 52 16.5 52.223858 16.5 52.5C 16.5 52.776142 16.276142 53 16 53C 15.723858 53 15.5 52.776142 15.5 52.5C 15.5 52.223858 15.723858 52 16 52"></path></g></g></g><g id="g-root-ic_expl_1414hog1hcj11p-stroke" data-item-order="0" transform="translate(338, 338)"><g id="ic_expl_1414hog1hcj11p-stroke" fill="none" stroke-linecap="round" stroke-linejoin="round" stroke-miterlimit="4" stroke="#ffe711" stroke-width="2" stroke-opacity="1"><g><path d="M 13 57L 13 43C 13 36.92487 17.924868 32 24 32C 30.075132 32 35 36.92487 35 43L 35 57M 33 13L 33 19M 30 16L 36 16M 51 31L 51 37M 48 34L 54 34M 49 11C 49 14.313709 51.686295 17 55 17C 51.686295 17 49 19.686291 49 23C 49 19.686291 46.313709 17 43 17C 46.313709 17 49 14.313709 49 11M 31.504 30.021999L 34.650002 25.908001C 34.825058 25.679461 35.090111 25.537449 35.377354 25.518299C 35.664597 25.499149 35.946159 25.604721 36.150002 25.807999L 40.200001 29.85C 40.403282 30.053843 40.50885 30.335405 40.4897 30.622646C 40.470551 30.909889 40.328537 31.174944 40.099998 31.35L 36.242001 34.302002M 39 45L 39 43C 38.99353 37.992256 36.491096 33.317299 32.327553 30.534777C 28.164007 27.752256 22.88736 27.228409 18.257999 29.137999M 13 43L 35 43M 35 47L 13 47M 21 57L 21 54C 21 52.343147 22.343147 51 24 51L 24 51C 25.656855 51 27 52.343147 27 54L 27 57"></path></g></g></g><g id="g-root-tx_contenid_1cu9if41hcx1jg-stroke" data-item-order="0" transform="translate(62, 386)"></g><g id="g-root-ic_cog_1hx8g1hcx1j5-stroke" data-item-order="0" transform="translate(266, 422)"><g id="ic_cog_1hx8g1hcx1j5-stroke" fill="none" stroke-linecap="round" stroke-linejoin="round" stroke-miterlimit="4" stroke="#43dd93" stroke-width="2" stroke-opacity="1"><g><path d="M 37.799999 45.1278L 37.799999 49.474998C 37.799999 51.474998 36.200001 53.275002 34 53.275002M 34 53.275002C 31.799999 53.275002 30.200001 51.674999 30.200001 49.474998L 30.200001 45.1278M 34 53.275002L 34 56.275002M 44 35.875C 44 41.3978 39.5228 45.875 34 45.875C 28.47716 45.875 24 41.3978 24 35.875C 24 30.3522 28.47716 25.875061 34 25.875061C 39.5228 25.875061 44 30.3522 44 35.875ZM 46.359798 46.360001C 47.292599 45.6604 48.225399 45.194 49.391602 45.194L 52.189999 45.4272C 53.822399 45.6604 55.2216 44.4944 55.9212 43.095001C 56.6208 41.462601 56.154598 39.8302 54.9884 38.6642L 52.889599 36.798401C 52.189999 36.098801 51.723598 35.166 51.723598 34C 51.723598 33.0672 52.189999 31.901199 52.889599 31.201599L 54.9884 29.335899C 56.154598 28.169861 56.6208 26.30418 55.9212 24.90494C 55.2216 23.505699 53.822399 22.57288 52.189999 22.57288L 49.391602 22.806099C 48.225399 22.806099 47.059399 22.33968 46.359798 21.64006C 45.660198 20.707241 45.193802 19.774399 45.193802 18.608379L 45.426998 15.8099C 45.660198 14.17746 44.494202 12.7782 43.095001 12.07858C 41.462402 11.378968 39.830002 11.845402 38.664001 13.01144L 36.798401 15.11028C 36.098801 15.8099 35.166 16.27632 33.999802 16.27632C 32.833801 16.27632 31.901199 15.8099 31.201401 15.11028L 29.335859 13.01144C 28.169821 11.845402 26.537399 11.378968 24.904961 12.07858C 23.50572 12.7782 22.33968 14.17746 22.57288 15.8099L 22.806099 18.608379C 22.806099 19.774399 22.339699 20.707241 21.640079 21.64006C 20.94046 22.33968 19.77438 22.806099 18.608341 22.806099L 15.809919 22.57288C 14.17746 22.57288 12.77822 23.505699 12.0786 24.90494C 11.378976 26.30418 11.845374 28.169861 13.0114 29.335899L 15.11026 31.201599C 15.809879 31.901199 16.276279 33.0672 16.276279 34C 16.276279 35.166 15.809879 36.098801 15.11026 36.798401L 13.0114 38.6642C 11.845374 39.8302 11.378976 41.462601 12.0786 43.095001C 12.77822 44.4944 14.17746 45.6604 15.809919 45.4272L 18.608341 45.194C 19.77438 45.194 20.707241 45.6604 21.640079 46.360001"></path></g></g></g><g id="g-root-tx_interacc_zit01s1hcx34d-stroke" data-item-order="0" transform="translate(422, 386)"></g><g id="g-root-tx_javascri_v3lz0g1hcx0qu-stroke" data-item-order="0" transform="translate(236, 530)"></g></g></g></svg>