<?xml version="1.0" encoding="utf-8" standalone="yes"?>
<!DOCTYPE svg PUBLIC "-//W3C//DTD SVG 1.1//EN" "http://www.w3.org/Graphics/SVG/1.1/DTD/svg11.dtd">
<svg style="fill:none;stroke:none;fill-rule:evenodd;clip-rule:evenodd;stroke-linecap:round;stroke-linejoin:round;stroke-miterlimit:1.5;" version="1.1" xmlns="http://www.w3.org/2000/svg" xmlns:xlink="http://www.w3.org/1999/xlink" width="684" height="594" viewBox="0 0 684 594"><style class="text-font-style fontImports" data-font-family="Shantell Sans">@import url(https://fonts.googleapis.com/css2?family=Shantell+Sans:wght@300..800&amp;amp;display=block);</style><rect id="" x="0" y="0" width="684" height="594" style="fill: #2c2c2c;"></rect><g id="items" style="isolation: isolate"><g id="blend" style="mix-blend-mode: normal"><g id="g-root-tf_142zatc1kocrnq-fill" data-item-order="-609444"><g id="tf_142zatc1kocrnq-fill-merged" stroke="none" fill="#2c2c2c" fill-opacity="1"><g><path d="M0 0 H684 V594 H0 V0"></path></g></g></g><g id="g-root-sy_-1_cu_1d2zmo01kofk77-fill" data-item-order="-120245" transform="translate(206.46536254882812, 116)"></g><g id="g-root-sy_0_cu_Vector_147z3i81kofhu4-fill" data-item-order="-120242" transform="translate(308, 224)"><g id="sy_0_cu_Vector_147z3i81kofhu4-fill-merged" stroke="none" fill="#6b6b6b" fill-opacity="1"><g><path d="M102.335 39.636C112.477 64.121 100.849 92.192 76.364 102.335C51.879 112.477 23.808 100.849 13.665 76.364C3.523 51.879 15.151 23.808 39.636 13.665C64.121 3.523 92.192 15.151 102.335 39.636"></path></g></g></g><g id="g-root-sy_5_cu_Vector_zs5lds1kofimd-fill" data-item-order="-120238" transform="translate(242, 122)"><g id="sy_5_cu_Vector_zs5lds1kofimd-fill-merged" stroke="none" fill="#815d3b" fill-opacity="1"><g><path d="M24.818 56.167C12.575 51.096 6.762 37.061 11.833 24.818C16.904 12.575 30.939 6.762 43.182 11.833C55.425 16.904 61.238 30.939 56.167 43.182C51.096 55.425 37.061 61.238 24.818 56.167"></path></g></g></g><g id="g-root-sy_4_cu_Vector_zs5lds1kofime-fill" data-item-order="-120234" transform="translate(182, 296)"><g id="sy_4_cu_Vector_zs5lds1kofime-fill-merged" stroke="none" fill="#776f30" fill-opacity="1"><g><path d="M43.182 56.167C30.939 61.238 16.904 55.425 11.833 43.182C6.762 30.939 12.575 16.904 24.818 11.833C37.061 6.762 51.096 12.575 56.167 24.818C61.238 37.061 55.425 51.096 43.182 56.167"></path></g></g></g><g id="g-root-sy_3_cu_Vector_qwil4w1kofjf3-fill" data-item-order="-120230" transform="translate(332, 404)"><g id="sy_3_cu_Vector_qwil4w1kofjf3-fill-merged" stroke="none" fill="#60703f" fill-opacity="1"><g><path d="M56.167 43.182C51.096 55.425 37.061 61.238 24.818 56.167C12.575 51.096 6.762 37.061 11.833 24.818C16.904 12.575 30.939 6.762 43.182 11.833C55.425 16.904 61.238 30.939 56.167 43.182"></path></g></g></g><g id="g-root-sy_2_cu_Vector_mgp30g1kofk7c-fill" data-item-order="-120226" transform="translate(482, 296)"><g id="sy_2_cu_Vector_mgp30g1kofk7c-fill-merged" stroke="none" fill="#41735b" fill-opacity="1"><g><path d="M56.167 24.818C61.238 37.061 55.425 51.096 43.182 56.167C30.939 61.238 16.904 55.425 11.833 43.182C6.762 30.939 12.575 16.904 24.818 11.833C37.061 6.762 51.096 12.575 56.167 24.818"></path></g></g></g><g id="g-root-sy_1_cu_Vector_hriglc1kogwe9-fill" data-item-order="-120222" transform="translate(422, 122)"><g id="sy_1_cu_Vector_hriglc1kogwe9-fill-merged" stroke="none" fill="#346778" fill-opacity="1"><g><path d="M24.818 56.167C12.575 51.096 6.762 37.061 11.833 24.818C16.904 12.575 30.939 6.762 43.182 11.833C55.425 16.904 61.238 30.939 56.167 43.182C51.096 55.425 37.061 61.238 24.818 56.167"></path></g></g></g><g id="g-root-tx_essentia_1cxdg1s1kogxz8-fill" data-item-order="0" transform="translate(110, 38)"><g id="tx_essentia_1cxdg1s1kogxz8-fill-merged" stroke="none" fill="#f4f4f4" fill-opacity="1"><g><text style="font: bold 25px &quot;Shantell Sans&quot;, cursive; white-space: pre;" transform="translate(256, 28)" font-weight="bold" font-size="25px" font-family="'Shantell Sans', cursive"><tspan x="-243.99" y="16.2" dominant-baseline="ideographic">Essential Foundations for Developers</tspan></text></g></g></g><g id="g-root-ic_1_hriglc1kogwea-fill" data-item-order="0" transform="translate(254, 134)"></g><g id="g-root-tx_uicreati_1hbbiww1kogy6n-fill" data-item-order="0" transform="translate(110, 134)"><g id="tx_uicreati_1hbbiww1kogy6n-fill-merged" stroke="none" fill="#f4f4f4" fill-opacity="1"><g><text style="font: 20px &quot;Shantell Sans&quot;, cursive; white-space: pre;" transform="translate(130, 22)" font-size="20px" font-family="'Shantell Sans', cursive"><tspan x="-114.31" y="13.6" dominant-baseline="ideographic">UI Creation</tspan></text></g></g></g><g id="g-root-ic_1_1luvvk01kobd38-fill" data-item-order="0" transform="translate(434, 134)"></g><g id="g-root-tx_htmlandc_1q8tyf41kogweb-fill" data-item-order="0" transform="translate(482, 122)"><g id="tx_htmlandc_1q8tyf41kogweb-fill-merged" stroke="none" fill="#f4f4f4" fill-opacity="1"><g><text style="font: 20px &quot;Shantell Sans&quot;, cursive; white-space: pre;" transform="translate(10, 34)" font-size="20px" font-family="'Shantell Sans', cursive"><tspan x="2" y="1.6" dominant-baseline="ideographic">HTML and </tspan><tspan x="2" y="25.6" dominant-baseline="ideographic">CSS</tspan></text></g></g></g><g id="g-root-ic_devi_1lwratc1kocphq-fill" data-item-order="0" transform="translate(332, 248)"></g><g id="g-root-ic_wave_hu0cxs1kojril-fill" data-item-order="0" transform="translate(194, 308)"></g><g id="g-root-tx_browseru_v4uhds1kogy68-fill" data-item-order="0" transform="translate(14, 296)"><g id="tx_browseru_v4uhds1kogy68-fill-merged" stroke="none" fill="#f4f4f4" fill-opacity="1"><g><text style="font: 20px &quot;Shantell Sans&quot;, cursive; white-space: pre;" transform="translate(166, 34)" font-size="20px" font-family="'Shantell Sans', cursive"><tspan x="-81.13" y="1.6" dominant-baseline="ideographic">Browser </tspan><tspan x="-144.15" y="25.6" dominant-baseline="ideographic">Understanding</tspan></text></g></g></g><g id="g-root-ic_node_djt7r41ko9x4z-fill" data-item-order="0" transform="translate(494, 308)"></g><g id="g-root-tx_javascri_1uo0zgg1kogyru-fill" data-item-order="0" transform="translate(542, 308)"><g id="tx_javascri_1uo0zgg1kogyru-fill-merged" stroke="none" fill="#f4f4f4" fill-opacity="1"><g><text style="font: 20px &quot;Shantell Sans&quot;, cursive; white-space: pre;" transform="translate(10, 22)" font-size="20px" font-family="'Shantell Sans', cursive"><tspan x="2" y="13.6" dominant-baseline="ideographic">JavaScript</tspan></text></g></g></g><g id="g-root-ic_1_1d0hqbk1konzt2-fill" data-item-order="0" transform="translate(344, 416)"></g><g id="g-root-tx_framewor_hu0g3k1kogwld-fill" data-item-order="0" transform="translate(290, 512)"><g id="tx_framewor_hu0g3k1kogwld-fill-merged" stroke="none" fill="#f4f4f4" fill-opacity="1"><g><text style="font: 20px &quot;Shantell Sans&quot;, cursive; white-space: pre;" transform="translate(76, 22)" font-size="20px" font-family="'Shantell Sans', cursive"><tspan x="-58.96" y="13.6" dominant-baseline="ideographic">Frameworks</tspan></text></g></g></g><g id="g-root-tf_142zatc1kocrnq-stroke" data-item-order="-609444"></g><g id="g-root-sy_-1_cu_1d2zmo01kofk77-stroke" data-item-order="-120245" transform="translate(206.46536254882812, 116)"><g id="sy_-1_cu_1d2zmo01kofk77-stroke" fill="none" stroke-linecap="round" stroke-linejoin="round" stroke-miterlimit="4" stroke="#f4f4f4" stroke-width="2" stroke-dasharray="5.0, 7.0" stroke-opacity="1"><g><path d="M 137.923537 311.5745C 115.465137 289.0213 99.534637 232.3476 99.534637 166C 99.534637 79.8436 126.397537 10 159.534637 10C 192.671737 10 219.534637 79.8436 219.534637 166C 219.534637 232.3479 203.604037 289.0218 181.145437 311.5748M 225.900953 35.829345C 194.525853 41.893445 149.287353 78.025745 110.993153 130.733245C 60.351653 200.435245 41.031153 272.729545 67.839653 292.207045C 94.648153 311.684545 157.433653 270.969545 208.075153 201.267545C 247.371953 147.180145 267.808953 91.531745 262.467053 60.212545M 56.601729 60.214569C 51.261429 91.534269 71.698329 147.181069 110.994129 201.266969C 161.635529 270.968969 224.421129 311.684069 251.229629 292.206569C 278.038029 272.729069 258.717629 200.434769 208.076129 130.732769C 169.780929 78.023969 124.541229 41.891069 93.166029 35.828369M 26.563904 230.91132C 54.471004 245.99272 114.072704 243.85972 178.075304 223.06402C 260.015004 196.44022 318.139104 149.30922 307.899104 117.79392C 297.659204 86.27872 222.932904 82.31342 140.993304 108.93722C 77.844904 129.45532 28.841304 162.15332 14.373504 190.49692M 304.694569 190.494976C 290.225669 162.151876 241.222769 129.454676 178.075569 108.936976C 96.135969 82.313176 21.409669 86.278476 11.169769 117.793676C 0.929869 149.308976 59.053869 196.439976 140.993569 223.063776C 204.996069 243.859476 264.597669 245.992476 292.504869 230.911176"></path></g></g></g><g id="g-root-sy_0_cu_Vector_147z3i81kofhu4-stroke" data-item-order="-120242" transform="translate(308, 224)"><g id="sy_0_cu_Vector_147z3i81kofhu4-stroke" fill="none" stroke-linecap="round" stroke-linejoin="round" stroke-miterlimit="4" stroke="#2c2c2c" stroke-width="2" stroke-opacity="1"><g><path d="M 102.3346 39.636C 112.4768 64.1213 100.8493 92.1925 76.364 102.3346C 51.8787 112.4768 23.8075 100.8493 13.6654 76.364C 3.5232 51.8787 15.1507 23.8075 39.636 13.6654C 64.1213 3.5232 92.1925 15.1507 102.3346 39.636Z"></path></g></g></g><g id="g-root-sy_5_cu_Vector_zs5lds1kofimd-stroke" data-item-order="-120238" transform="translate(242, 122)"><g id="sy_5_cu_Vector_zs5lds1kofimd-stroke" fill="none" stroke-linecap="round" stroke-linejoin="round" stroke-miterlimit="4" stroke="#2c2c2c" stroke-width="2" stroke-opacity="1"><g><path d="M 24.818015 56.167308C 12.575315 51.096208 6.761615 37.060708 11.832715 24.818008C 16.903815 12.575308 30.939315 6.761608 43.182015 11.832708C 55.424715 16.903808 61.238415 30.939308 56.167315 43.182008C 51.096215 55.424708 37.060715 61.238408 24.818015 56.167308Z"></path></g></g></g><g id="g-root-sy_4_cu_Vector_zs5lds1kofime-stroke" data-item-order="-120234" transform="translate(182, 296)"><g id="sy_4_cu_Vector_zs5lds1kofime-stroke" fill="none" stroke-linecap="round" stroke-linejoin="round" stroke-miterlimit="4" stroke="#2c2c2c" stroke-width="2" stroke-opacity="1"><g><path d="M 43.182 56.1673C 30.9393 61.2384 16.9038 55.4247 11.8327 43.182C 6.7616 30.9393 12.5753 16.9038 24.818 11.8327C 37.0607 6.7616 51.0962 12.5753 56.1673 24.818C 61.2384 37.0607 55.4247 51.0962 43.182 56.1673Z"></path></g></g></g><g id="g-root-sy_3_cu_Vector_qwil4w1kofjf3-stroke" data-item-order="-120230" transform="translate(332, 404)"><g id="sy_3_cu_Vector_qwil4w1kofjf3-stroke" fill="none" stroke-linecap="round" stroke-linejoin="round" stroke-miterlimit="4" stroke="#2c2c2c" stroke-width="2" stroke-opacity="1"><g><path d="M 56.1673 43.182C 51.0962 55.4247 37.0607 61.2384 24.818 56.1673C 12.5753 51.0962 6.7616 37.0607 11.8327 24.818C 16.9038 12.5753 30.9393 6.7616 43.182 11.8327C 55.4247 16.9038 61.2384 30.9393 56.1673 43.182Z"></path></g></g></g><g id="g-root-sy_2_cu_Vector_mgp30g1kofk7c-stroke" data-item-order="-120226" transform="translate(482, 296)"><g id="sy_2_cu_Vector_mgp30g1kofk7c-stroke" fill="none" stroke-linecap="round" stroke-linejoin="round" stroke-miterlimit="4" stroke="#2c2c2c" stroke-width="2" stroke-opacity="1"><g><path d="M 56.1673 24.818C 61.2384 37.0607 55.4247 51.0962 43.182 56.1673C 30.9393 61.2384 16.9038 55.4247 11.8327 43.182C 6.7616 30.9393 12.5753 16.9038 24.818 11.8327C 37.0607 6.7616 51.0962 12.5753 56.1673 24.818Z"></path></g></g></g><g id="g-root-sy_1_cu_Vector_hriglc1kogwe9-stroke" data-item-order="-120222" transform="translate(422, 122)"><g id="sy_1_cu_Vector_hriglc1kogwe9-stroke" fill="none" stroke-linecap="round" stroke-linejoin="round" stroke-miterlimit="4" stroke="#2c2c2c" stroke-width="2" stroke-opacity="1"><g><path d="M 24.818 56.167308C 12.5753 51.096208 6.7616 37.060708 11.8327 24.818008C 16.9038 12.575308 30.9393 6.761608 43.182 11.832708C 55.4247 16.903808 61.2384 30.939308 56.1673 43.182008C 51.0962 55.424708 37.0607 61.238408 24.818 56.167308Z"></path></g></g></g><g id="g-root-tx_essentia_1cxdg1s1kogxz8-stroke" data-item-order="0" transform="translate(110, 38)"></g><g id="g-root-ic_1_hriglc1kogwea-stroke" data-item-order="0" transform="translate(254, 134)"><g id="ic_1_hriglc1kogwea-stroke" fill="none" stroke-linecap="round" stroke-linejoin="round" stroke-miterlimit="4" stroke="#f79438" stroke-width="2" stroke-opacity="1"><g><path d="M 19.55 16.5L 12.55 16.5C 11.445431 16.5 10.55 17.395431 10.55 18.5L 10.55 31.5C 10.55 32.604569 11.445431 33.5 12.55 33.5L 31.55 33.5C 32.654569 33.5 33.55 32.604569 33.55 31.5L 33.55 18.5C 33.55 17.395431 32.654569 16.5 31.55 16.5L 29.45 16.5M 16 20L 14.5 20C 13.947715 20 13.5 20.447715 13.5 21L 13.5 26C 13.5 26.552285 13.947715 27 14.5 27L 21 27C 21.552285 27 22 26.552285 22 26L 22 24M 22 24L 23.5 24C 24.052285 24 24.5 24.447715 24.5 25L 24.5 29.5C 24.5 30.052285 24.052285 30.5 23.5 30.5L 16 30.5C 15.447715 30.5 15 30.052285 15 29.5L 15 27M 30.5 21.5C 30.5 22.052285 30.052285 22.5 29.5 22.5L 28.5 22.5C 27.947715 22.5 27.5 22.052285 27.5 21.5C 27.5 20.947715 27.947715 20.5 28.5 20.5L 29.5 20.5C 30.052285 20.5 30.5 20.947715 30.5 21.5ZM 28.5 24.5L 29.5 24.5C 29.5 24.5 30.5 24.5 30.5 25.5L 30.5 29.5C 30.5 29.5 30.5 30.5 29.5 30.5L 28.5 30.5C 28.5 30.5 27.5 30.5 27.5 29.5L 27.5 25.5C 27.5 25.5 27.5 24.5 28.5 24.5M 30.06 10.94C 29.780067 10.656628 29.398326 10.497139 29.000001 10.497139C 28.601676 10.497139 28.219935 10.656628 27.940001 10.94L 18.85 20L 18 23L 21 22.15L 30.09 13.06C 30.369449 12.776076 30.523562 12.39207 30.517925 11.993732C 30.512288 11.595395 30.347371 11.215903 30.060001 10.94Z"></path></g></g></g><g id="g-root-tx_uicreati_1hbbiww1kogy6n-stroke" data-item-order="0" transform="translate(110, 134)"></g><g id="g-root-ic_1_1luvvk01kobd38-stroke" data-item-order="0" transform="translate(434, 134)"><g id="ic_1_1luvvk01kobd38-stroke" fill="none" stroke-linecap="round" stroke-linejoin="round" stroke-miterlimit="4" stroke="#1ac3fb" stroke-width="2" stroke-opacity="1"><g><path d="M 15.5 21.504L 15.5 29.504M 11.5 29.504L 11.5 21.504M 11.5 25.504L 15.5 25.504M 23.5 29.504L 23.5 21.504L 25.5 25.504L 27.5 21.504L 27.5 29.504M 29.5 21.5L 29.5 28C 29.500001 28.828428 30.171573 29.500001 31.000001 29.500001L 33.5 29.5M 17.5 21.504L 21.5 21.504M 19.5 21.504L 19.5 29.504M 33.5 32.5C 33.5 33.052285 33.052285 33.5 32.5 33.5L 11.5 33.5C 10.947715 33.5 10.5 33.052285 10.5 32.5M 10.5 18.5L 10.5 11.5C 10.5 10.947715 10.947715 10.5 11.5 10.5L 32.5 10.5C 33.052285 10.5 33.5 10.947715 33.5 11.5L 33.5 18.5"></path></g></g></g><g id="g-root-tx_htmlandc_1q8tyf41kogweb-stroke" data-item-order="0" transform="translate(482, 122)"></g><g id="g-root-ic_devi_1lwratc1kocphq-stroke" data-item-order="0" transform="translate(332, 248)"><g id="ic_devi_1lwratc1kocphq-stroke" fill="none" stroke-linecap="round" stroke-linejoin="round" stroke-miterlimit="4" stroke="#b7b7b7" stroke-width="2" stroke-opacity="1"><g><path d="M 52 46L 34 57L 16 46L 12 11L 56 11L 52 46ZM 29 25L 21 31L 29 37L 39 25L 47 31L 39 37"></path></g></g></g><g id="g-root-ic_wave_hu0cxs1kojril-stroke" data-item-order="0" transform="translate(194, 308)"><g id="ic_wave_hu0cxs1kojril-stroke" fill="none" stroke-linecap="round" stroke-linejoin="round" stroke-miterlimit="4" stroke="#ffe711" stroke-width="2" stroke-opacity="1"><g><path d="M 12.5 11L 31.5 11C 31.5 11 33.5 11 33.5 13L 33.5 31C 33.5 31 33.5 33 31.5 33L 12.5 33C 12.5 33 10.5 33 10.5 31L 10.5 13C 10.5 13 10.5 11 12.5 11M 10.5 16L 33.5 16M 14 13.25C 14.138071 13.25 14.25 13.361929 14.25 13.5C 14.25 13.638071 14.138071 13.75 14 13.75C 13.861929 13.75 13.75 13.638071 13.75 13.5C 13.75 13.361929 13.861929 13.25 14 13.25M 17 13.25C 17.138071 13.25 17.25 13.361929 17.25 13.5C 17.25 13.638071 17.138071 13.75 17 13.75C 16.861929 13.75 16.75 13.638071 16.75 13.5C 16.75 13.361929 16.861929 13.25 17 13.25M 20 13.25C 20.138071 13.25 20.25 13.361929 20.25 13.5C 20.25 13.638071 20.138071 13.75 20 13.75C 19.861929 13.75 19.75 13.638071 19.75 13.5C 19.75 13.361929 19.861929 13.25 20 13.25M 10.5 24.5L 33.5 24.5M 16 16L 16 33M 16 23L 17.465 20.071C 17.937718 19.124972 18.908488 18.531292 19.965998 18.541501C 21.023508 18.551711 21.982635 19.164022 22.437 20.119L 22.83 20.943C 23.264327 21.85547 24.161554 22.458587 25.170471 22.51627C 26.179388 22.573952 27.139507 22.077023 27.675 21.22L 27.675 21.22C 28.178256 20.414272 29.059785 19.923178 30.009758 19.919321C 30.959732 19.915464 31.845219 20.399385 32.355 21.201L 33.5 23M 16 29.093L 17.641 27.452C 17.971655 27.121334 18.434499 26.958579 18.899341 27.009515C 19.364184 27.060451 19.780799 27.319576 20.032 27.714001L 21.261 29.645C 21.537262 30.079631 22.012382 30.347527 22.527255 30.358978C 23.042128 30.370429 23.528688 30.123919 23.823999 29.701999L 24.665 28.502C 24.961232 28.078042 25.450497 27.831095 25.967519 27.844579C 26.484541 27.858063 26.960269 28.130177 27.233999 28.568999L 27.278 28.639C 27.550875 29.075379 28.023476 29.34685 28.537903 29.362712C 29.05233 29.378575 29.540758 29.136738 29.840001 28.718001L 29.84 28.718C 30.117727 28.329728 30.559624 28.09198 31.036668 28.074174C 31.513711 28.056368 31.972103 28.260512 32.278001 28.627001L 33.5 30.093"></path></g></g></g><g id="g-root-tx_browseru_v4uhds1kogy68-stroke" data-item-order="0" transform="translate(14, 296)"></g><g id="g-root-ic_node_djt7r41ko9x4z-stroke" data-item-order="0" transform="translate(494, 308)"><g id="ic_node_djt7r41ko9x4z-stroke" fill="none" stroke-linecap="round" stroke-linejoin="round" stroke-miterlimit="4" stroke="#43dd93" stroke-width="2" stroke-opacity="1"><g><path d="M 18.45 31.54L 21.45 33.36C 21.759401 33.538633 22.140599 33.538633 22.45 33.36L 31.58 27.88C 31.890634 27.700659 32.081424 27.368685 32.08 27.01L 32.08 17C 32.081424 16.641315 31.890634 16.309341 31.58 16.13L 22.52 10.64C 22.210599 10.461367 21.829401 10.461367 21.52 10.64L 12.35 16.12C 12.039366 16.299341 11.848576 16.631315 11.85 16.99L 11.85 27C 11.848576 27.358685 12.039366 27.690659 12.35 27.87L 15.09 29.51C 15.775149 29.920026 16.627713 29.930526 17.322752 29.537498C 18.017791 29.14447 18.448224 28.408466 18.45 27.61L 18.45 17.94M 21.5 24C 21.498097 24.97838 22.22859 25.803407 23.2 25.92C 24.063384 26.026693 24.936618 26.026693 25.800001 25.920001C 26.77141 25.803407 27.501902 24.97838 27.499999 24C 27.496157 23.127994 26.861159 22.387162 25.999999 22.249999L 24.5 22L 23 21.75C 22.13884 21.612837 21.503841 20.872005 21.5 20C 21.498097 19.02162 22.22859 18.196593 23.2 18.08C 24.063384 17.973308 24.936618 17.973308 25.800001 18.08C 26.77141 18.196593 27.501902 19.02162 27.499999 20"></path></g></g></g><g id="g-root-tx_javascri_1uo0zgg1kogyru-stroke" data-item-order="0" transform="translate(542, 308)"></g><g id="g-root-ic_1_1d0hqbk1konzt2-stroke" data-item-order="0" transform="translate(344, 416)"><g id="ic_1_1d0hqbk1konzt2-stroke" fill="none" stroke-linecap="round" stroke-linejoin="round" stroke-miterlimit="4" stroke="#a6da37" stroke-width="2" stroke-opacity="1"><g><path d="M 10 10M 14.5 17.90293L 12 16.50293M 10 10M 32 16.50293L 29.6 17.80293M 22 30.8501L 22 33.2501M 10 10M 27 24.75L 22 27.45L 17 24.75L 17 19.35005L 22 16.55005L 27 19.35005L 27 24.75ZM 10 10M 27 19.34985L 22 22.0499L 17 19.34985M 22 22.05L 22 27.45M 32 27.5993L 22 33.25L 12 27.5993L 12 16.50342L 22 10.75L 32 16.50342L 32 27.5993Z"></path></g></g></g><g id="g-root-tx_framewor_hu0g3k1kogwld-stroke" data-item-order="0" transform="translate(290, 512)"></g></g></g></svg>